<svg width="54" height="66" viewBox="0 0 54 66" fill="none" xmlns="http://www.w3.org/2000/svg">
<g id="Group">
<g id="Group_2">
<g id="Group_3">
<path id="Vector" d="M21.708 45.5605C21.0502 45.725 20.5569 45.8895 20.0635 46.2184C19.4057 45.2316 18.9123 44.0804 18.2545 43.2582C17.1033 41.6136 15.7877 40.1335 14.6365 38.489C12.8275 36.0222 11.3474 33.5553 10.6896 30.4307C9.20949 22.7013 13.4853 15.1364 20.8858 12.1762C30.5886 8.22925 41.7716 14.8075 43.2517 25.1681C43.9095 29.9373 42.4294 33.8842 39.7981 37.6667C38.6469 39.3113 37.1668 40.9558 36.0156 42.7648C35.1934 43.916 34.7 45.0672 33.8778 46.2184C33.5488 46.7117 33.2199 47.2051 32.7265 47.3695C28.9441 48.8496 25.1616 50.1653 21.3792 51.4809C20.8858 51.6454 20.5569 51.4809 20.3924 51.152C20.228 50.6586 20.228 50.1653 20.7214 50.0008C21.0503 49.8364 21.3791 49.6719 21.708 49.6719C24.9971 48.5207 28.2862 47.3695 31.5753 46.0539C31.9043 45.8895 32.2332 45.5605 32.3976 45.2316C33.7133 42.7648 35.3578 40.7913 37.0024 38.489C38.6469 36.3511 40.127 34.3776 40.7848 31.7463C42.4294 26.4838 41.2782 21.879 37.6602 17.9321C33.5488 13.3274 28.2863 11.8473 22.3659 13.6563C16.4455 15.4653 13.1564 19.5766 12.0052 25.6615C11.1829 29.9373 12.663 33.5553 15.1298 36.8444C16.6099 38.8179 18.0901 40.7913 19.5701 42.7648C20.5569 43.4226 21.0502 44.4094 21.708 45.5605Z" fill="#EF7D37"/>
<path id="Vector_2" d="M20.8859 61.8417C20.7214 61.6772 20.3925 61.5127 20.3925 61.1838C20.3925 60.8549 20.557 60.526 20.7215 60.1971C20.7215 60.0326 21.0504 60.0327 21.2148 60.0327C24.8328 58.717 28.6153 57.4014 32.2333 56.0857C33.0556 55.7568 33.3845 55.9213 33.5489 56.4146C33.7134 56.908 33.3845 57.4014 32.7267 57.7303C28.9442 59.0459 25.3262 60.3616 21.5438 61.8417C21.3793 61.6772 21.2148 61.6772 20.8859 61.8417Z" fill="#EF7D37"/>
<path id="Vector_3" d="M20.8859 56.4149C20.7214 56.2504 20.3925 56.086 20.3925 55.7571C20.3925 55.4282 20.557 55.0993 20.7215 54.7703C20.7215 54.6059 21.0504 54.6059 21.2148 54.6059C24.8328 53.2903 28.6153 51.9746 32.2333 50.659C33.0556 50.3301 33.3845 50.4945 33.5489 50.9879C33.7134 51.4812 33.5489 51.9746 32.7267 52.3035C28.9442 53.6192 25.3262 55.0993 21.5438 56.4149C21.3793 56.4149 21.2148 56.4149 20.8859 56.4149Z" fill="#EF7D37"/>
<path id="Vector_4" d="M32.7266 61.0193C31.5754 64.9662 25.1616 67.2686 21.2147 65.1307C24.9972 63.815 28.7797 62.3349 32.7266 61.0193Z" fill="#EF7D37"/>
<path id="Vector_5" d="M27.7929 3.46019C27.7929 4.11801 27.7929 4.77583 27.7929 5.43365C27.7929 5.92702 27.464 6.25593 26.9706 6.25593C26.4772 6.25593 26.1483 5.92702 26.1483 5.43365C26.1483 4.11801 26.1483 2.80237 26.1483 1.32228C26.1483 0.82891 26.4772 0.5 26.9706 0.5C27.464 0.5 27.7929 0.82891 27.7929 1.32228C27.7929 1.9801 27.7929 2.80237 27.7929 3.46019Z" fill="#EF7D37"/>
<path id="Vector_6" d="M2.96026 26.4839C3.61808 26.4839 4.27592 26.4839 4.93374 26.4839C5.59156 26.4839 5.92048 26.8129 5.92048 27.3062C5.92048 27.7996 5.59156 28.1285 4.93374 28.1285C3.6181 28.1285 2.30247 28.1285 0.986831 28.1285C0.329012 28.1285 9.15527e-05 27.7996 9.15527e-05 27.3062C9.15527e-05 26.8129 0.329012 26.4839 0.986831 26.4839C1.64465 26.4839 2.30244 26.4839 2.96026 26.4839Z" fill="#EF7D37"/>
<path id="Vector_7" d="M50.9811 28.2929C50.3233 28.2929 49.6654 28.2929 49.0076 28.2929C48.5142 28.2929 48.1853 27.964 48.1853 27.4707C48.1853 26.9773 48.5142 26.6484 49.0076 26.6484C50.3232 26.6484 51.8033 26.6484 53.119 26.6484C53.6123 26.6484 53.9413 26.9773 53.9413 27.4707C53.9413 27.964 53.6123 28.2929 53.119 28.2929C52.2967 28.2929 51.6389 28.2929 50.9811 28.2929Z" fill="#EF7D37"/>
<path id="Vector_8" d="M8.22294 7.7359C8.55185 7.90036 8.7163 8.06481 8.88075 8.22927C9.86748 9.216 10.6898 10.0383 11.6765 11.025C12.1699 11.5184 12.1699 11.8473 11.6765 12.3406C11.3476 12.6696 10.8542 12.6696 10.3608 12.3406C9.37411 11.3539 8.38741 10.5316 7.56513 9.54491C7.40068 9.38045 7.23621 8.88709 7.40067 8.55818C7.56512 8.06481 8.05849 7.90036 8.22294 7.7359Z" fill="#EF7D37"/>
<path id="Vector_9" d="M42.594 42.1071C42.9229 42.2716 43.0873 42.436 43.2518 42.6005C44.2385 43.4228 45.0608 44.4095 46.0475 45.2318C46.5409 45.7251 46.5409 46.2185 46.212 46.5474C45.8831 46.8763 45.3897 46.8763 44.8963 46.3829C43.9096 45.3962 43.0874 44.5739 42.1006 43.5872C41.9362 43.4228 41.7717 42.9294 41.9362 42.6005C41.9362 42.436 42.2651 42.2716 42.594 42.1071Z" fill="#EF7D37"/>
<path id="Vector_10" d="M46.5408 8.72285C46.3764 9.05176 46.2119 9.21622 46.0475 9.38067C45.0608 10.3674 44.2385 11.1897 43.2517 12.1764C42.9228 12.5053 42.4295 12.6698 41.9361 12.1764C41.6072 11.8475 41.6072 11.3541 41.9361 10.8608C42.9228 9.87404 43.7451 8.88731 44.7318 8.06503C44.8963 7.90058 45.3896 7.73612 45.7185 7.90058C46.0475 8.06503 46.2119 8.5584 46.5408 8.72285Z" fill="#EF7D37"/>
<path id="Vector_11" d="M8.22266 46.8763C8.05821 46.7119 7.72931 46.5474 7.56485 46.2185C7.4004 46.054 7.56485 45.5607 7.56485 45.3962C8.55158 44.4095 9.5383 43.2583 10.6895 42.2716C11.0184 41.9427 11.5117 41.9427 11.8406 42.2716C12.1696 42.6005 12.1696 43.0939 11.8406 43.4228C10.8539 44.4095 9.8672 45.3962 8.88047 46.383C8.71602 46.7119 8.55157 46.8763 8.22266 46.8763Z" fill="#EF7D37"/>
</g>
</g>
</g>
</svg>
