<svg width="27" height="19" viewBox="0 0 27 19" fill="none" xmlns="http://www.w3.org/2000/svg">
<path id="Vector" d="M13.5869 0H13.7371C15.1243 0.00507163 22.1532 0.0557882 24.0484 0.566332C24.6213 0.722147 25.1434 1.02586 25.5624 1.44712C25.9815 1.86838 26.2828 2.39243 26.4363 2.9669C26.6068 3.60931 26.7266 4.45965 26.8076 5.33704L26.8245 5.51286L26.8616 5.9524L26.8751 6.12821C26.9848 7.67337 26.9983 9.12047 27 9.4366V9.5634C26.9983 9.89136 26.9831 11.4365 26.8616 13.0459L26.8481 13.2234L26.8329 13.3992C26.7485 14.3662 26.6237 15.3265 26.4363 16.0331C26.2833 16.6078 25.9821 17.1321 25.563 17.5534C25.1439 17.9748 24.6215 18.2783 24.0484 18.4337C22.0908 18.9611 14.6501 18.9983 13.619 19H13.3793C12.8579 19 10.7011 18.9899 8.43972 18.9121L8.15282 18.9019L8.006 18.8952L7.71742 18.8834L7.42884 18.8715C5.5556 18.7887 3.7718 18.6551 2.94993 18.432C2.37698 18.2768 1.85479 17.9735 1.43569 17.5525C1.01659 17.1314 0.715286 16.6075 0.561973 16.0331C0.374648 15.3281 0.249766 14.3662 0.165385 13.3992L0.151884 13.2217L0.138384 13.0459C0.0550963 11.9004 0.00894408 10.7525 0 9.60397L0 9.39603C0.00337521 9.03257 0.0168761 7.77649 0.108007 6.39025L0.11982 6.21612L0.124883 6.12821L0.138384 5.9524L0.175511 5.51286L0.192387 5.33704C0.273392 4.45965 0.393212 3.60762 0.56366 2.9669C0.716715 2.3922 1.0179 1.8679 1.43702 1.44657C1.85614 1.02524 2.37846 0.721679 2.95162 0.566332C3.77349 0.346561 5.55728 0.211318 7.43053 0.126791L7.71742 0.114957L8.00769 0.104814L8.15282 0.0997422L8.4414 0.0879085C10.0475 0.0361349 11.6543 0.00739251 13.2612 0.00169062H13.5869V0ZM10.8007 5.42664V13.5717L17.8161 9.50084L10.8007 5.42664Z" fill="white"/>
</svg>
