<svg width="55" height="56" viewBox="0 0 55 56" fill="none" xmlns="http://www.w3.org/2000/svg">
<g id="Group">
<g id="Group_2">
<g id="Group_3">
<g id="Group_4">
<path id="Vector" d="M53.0337 2.05729C52.2135 2.05729 51.2567 2.05729 50.4365 2.05729C44.8319 2.33069 39.5007 3.56096 34.4429 6.02151C28.2916 8.89215 23.0971 12.9931 18.9962 18.4609C16.1255 22.1518 14.0751 26.2527 12.5714 30.627C12.4347 30.9004 12.5714 31.0371 12.7081 31.1738C13.9384 32.404 15.1687 33.6343 16.3989 34.8646C16.5356 35.0013 16.6723 35.2747 16.6723 35.5481C16.6723 35.8215 16.5356 36.0949 16.2622 36.2315C15.9888 36.3682 15.5788 36.3682 15.4421 36.0949C14.7586 35.4114 14.2118 34.8646 13.5283 34.1811C12.7081 33.3609 12.0246 32.5407 11.2044 31.8572C10.9311 31.5839 10.7944 31.1738 10.9311 30.7637C12.7081 25.4325 15.3054 20.5114 18.9962 16.1371C22.687 11.6261 27.198 8.07196 32.2558 5.47472C36.9035 3.01417 41.9613 1.51051 47.1558 0.827021C49.3429 0.553627 51.5301 0.41693 53.7172 0.553627C54.4007 0.553627 54.5374 0.827021 54.6741 1.51051C54.9475 10.3958 52.7603 18.5976 47.9759 26.2527C43.1915 33.771 36.6301 39.3756 28.4283 42.9297C27.198 43.4765 25.831 43.8866 24.4641 44.4334C24.054 44.5701 23.7806 44.5701 23.5072 44.16C22.1402 42.793 20.6365 41.2893 19.2696 39.9224C18.9962 39.649 18.8595 39.2389 19.1329 38.8288C19.4063 38.4187 19.9531 38.4187 20.3631 38.8288C21.5934 40.0591 22.8237 41.2893 24.054 42.5196C24.3274 42.793 24.4641 42.793 24.7374 42.6563C30.7521 40.6059 36.0833 37.3251 40.5943 32.9508C45.9255 27.7563 49.4796 21.605 51.5301 14.6334C52.6236 10.8059 53.1704 6.84169 53.1704 2.74078C53.1704 2.46739 53.0337 2.33069 53.0337 2.05729Z" fill="#EF7D37"/>
</g>
<g id="Group_5">
<path id="Vector_2" d="M45.5155 18.051C45.5155 22.6986 41.8247 26.3895 37.177 26.3895C32.5293 26.3895 28.8385 22.6986 28.8385 18.051C28.8385 13.5399 32.5293 9.71243 37.0403 9.71243C41.8247 9.71243 45.5155 13.4033 45.5155 18.051ZM43.8751 18.1876C43.8751 14.3601 40.8678 11.3528 37.0403 11.3528C33.2128 11.3528 30.2054 14.3601 30.2054 18.1876C30.2054 22.0152 33.2128 25.0225 37.0403 25.0225C40.8678 24.8858 43.8751 21.8785 43.8751 18.1876Z" fill="#EF7D37"/>
</g>
<g id="Group_6">
<path id="Vector_3" d="M24.601 53.0452C25.5578 52.4984 26.5147 51.8149 27.3349 51.1314C30.0688 48.6709 31.5725 45.6636 32.256 42.1094C32.3927 41.5626 32.6661 41.2892 33.0762 41.2892C33.623 41.2892 33.8964 41.6993 33.8964 42.2461C33.7597 42.9296 33.623 43.7498 33.3496 44.4333C31.8459 49.081 29.112 52.4984 24.8743 54.8222C23.9175 55.369 23.5074 55.0956 23.3707 54.1388C22.8239 51.2681 22.2771 48.2608 21.7303 45.3902C21.7303 45.1168 21.7303 44.8434 21.7303 44.7067C21.867 44.4333 22.1404 44.2966 22.5505 44.2966C22.8239 44.2966 23.0973 44.57 23.234 44.8434C23.3707 45.6636 23.5074 46.4837 23.7808 47.4406C23.9175 49.3544 24.3276 51.1314 24.601 53.0452Z" fill="#EF7D37"/>
</g>
<g id="Group_7">
<path id="Vector_4" d="M2.04585 30.4902C2.86603 30.6269 3.68621 30.7636 4.3697 30.9003C6.28346 31.3104 8.19722 31.5838 9.97428 31.9939C10.111 31.9939 10.111 31.9939 10.2477 31.9939C10.6578 32.1306 10.9312 32.5407 10.7945 32.9508C10.6578 33.3609 10.3844 33.6343 9.83758 33.4976C8.744 33.2242 7.51373 33.0875 6.42015 32.8141C4.64309 32.404 2.86603 32.1306 0.952273 31.7205C0.815576 31.7205 0.815576 31.7205 0.678879 31.7205C-0.00460619 31.5838 -0.141303 31.1737 0.132091 30.4902C0.952273 28.9866 1.90915 27.4829 3.13943 26.2526C5.73667 23.5187 8.8807 22.015 12.4348 21.1948C12.5715 21.1948 12.7082 21.1948 12.7082 21.0581C13.1183 20.9214 13.5284 21.1948 13.6651 21.6049C13.8018 22.015 13.5284 22.4251 12.9816 22.5618C12.1614 22.8352 11.2045 22.9719 10.3844 23.2453C6.83025 24.4756 4.0963 26.6627 2.04585 29.8068C2.18255 30.2168 2.18255 30.3535 2.04585 30.4902Z" fill="#EF7D37"/>
</g>
<g id="Group_8">
<path id="Vector_5" d="M11.7512 42.6564C11.8879 42.5197 12.0246 42.2463 12.1613 42.1096C14.7585 39.5123 17.2191 37.0518 19.8163 34.4545C20.7732 33.4977 21.5934 32.6775 22.5503 31.7206C22.9603 31.3105 23.3704 31.3105 23.7805 31.5839C24.0539 31.8573 24.0539 32.4041 23.6438 32.8142C20.6365 35.8215 17.6292 38.9655 14.4851 41.9729C14.075 42.383 13.6649 42.9298 13.1182 43.3399C12.8448 43.6132 12.5714 43.6132 12.298 43.4766C11.8879 43.3399 11.7512 43.0665 11.7512 42.6564Z" fill="#EF7D37"/>
</g>
<g id="Group_9">
<path id="Vector_6" d="M8.19726 46.2106C8.47065 46.3473 8.74405 46.484 8.88074 46.7574C9.01744 47.0308 8.88074 47.3041 8.74405 47.5775C8.60735 47.7142 8.33396 47.9876 8.19726 48.261C6.55689 49.9014 4.91653 51.6785 3.13947 53.3188C2.86607 53.4555 2.72938 53.5922 2.45598 53.5922C2.18259 53.5922 1.9092 53.4555 1.7725 53.1821C1.6358 52.772 1.6358 52.4986 1.9092 52.2252C3.00277 51.1317 4.09635 50.0381 5.18992 48.9445C6.01011 48.1243 6.69359 47.4408 7.51377 46.6207C7.78717 46.484 7.92386 46.3473 8.19726 46.2106Z" fill="#EF7D37"/>
</g>
<g id="Group_10">
<path id="Vector_7" d="M6.96694 40.6059C7.65042 40.6059 8.06051 41.2893 7.78712 41.6994C7.65042 41.8361 7.65042 41.9728 7.51373 42.1095C5.73666 43.8866 3.9596 45.6637 2.18254 47.4407L2.04584 47.5774C1.63575 47.8508 1.22566 47.9875 0.952268 47.5774C0.678874 47.304 0.678874 46.7572 0.952268 46.4838C2.31924 45.1169 3.68621 43.7499 5.05318 42.3829C5.59997 41.8361 6.01006 41.426 6.55685 41.016C6.69354 40.7426 6.96694 40.6059 6.96694 40.6059Z" fill="#EF7D37"/>
</g>
<g id="Group_11">
<path id="Vector_8" d="M14.6219 48.2608C14.6219 48.3975 14.4852 48.5342 14.3485 48.8076C12.4348 50.7214 10.6577 52.4984 8.74393 54.4122C8.33384 54.8223 7.92375 54.8223 7.51366 54.4122C7.24026 54.1388 7.24026 53.592 7.65036 53.3186C9.56411 51.4049 11.3412 49.6278 13.2549 47.714C13.5283 47.4407 13.8017 47.304 14.2118 47.4407C14.4852 47.5773 14.6219 47.714 14.6219 48.2608Z" fill="#EF7D37"/>
</g>
</g>
</g>
</g>
</svg>
