<svg width="22" height="19" viewBox="0 0 22 19" fill="none" xmlns="http://www.w3.org/2000/svg">
<g id="003-twitter">
<path id="Path" d="M22 2.67863C21.1819 3.0375 20.3101 3.27538 19.4013 3.39088C20.3363 2.83263 21.0499 1.95537 21.3854 0.898C20.5136 1.41775 19.5511 1.78488 18.5254 1.98975C17.6976 1.10838 16.5179 0.5625 15.2309 0.5625C12.7339 0.5625 10.7236 2.58925 10.7236 5.07387C10.7236 5.43138 10.7539 5.77513 10.8281 6.10238C7.0785 5.9195 3.76062 4.12238 1.53175 1.38475C1.14262 2.05988 0.914375 2.83262 0.914375 3.6645C0.914375 5.2265 1.71875 6.61112 2.91775 7.41275C2.19312 7.399 1.48225 7.18863 0.88 6.85725C0.88 6.871 0.88 6.88888 0.88 6.90675C0.88 9.0985 2.44338 10.919 4.4935 11.3384C4.12638 11.4388 3.72625 11.4869 3.311 11.4869C3.02225 11.4869 2.73075 11.4704 2.45712 11.4099C3.0415 13.196 4.69975 14.5091 6.6715 14.5518C5.137 15.7521 3.18863 16.4754 1.07938 16.4754C0.7095 16.4754 0.35475 16.4589 0 16.4135C1.99787 17.7019 4.36563 18.4375 6.919 18.4375C15.2185 18.4375 19.756 11.5625 19.756 5.60325C19.756 5.40387 19.7491 5.21137 19.7395 5.02025C20.6346 4.385 21.3867 3.59163 22 2.67863Z" fill="white"/>
</g>
</svg>
