<svg width="57" height="58" viewBox="0 0 57 58" fill="none" xmlns="http://www.w3.org/2000/svg">
<g id="Frame" clip-path="url(#clip0_329_534)">
<g id="Group">
<path id="Vector" d="M3.77937 52.0353C3.78632 52.7279 3.76199 53.4136 3.69593 54.1063C3.62639 54.785 3.43516 55.4777 3.47341 56.1599C3.48384 56.3235 3.69245 56.3409 3.74808 56.1982C4.23484 54.9834 4.07491 53.3162 4.02971 52.0353C4.02275 51.8752 3.77589 51.8717 3.77937 52.0353Z" fill="url(#paint0_linear_329_534)"/>
<path id="Vector_2" d="M6.38007 22.7347C6.49481 22.7347 6.49481 22.5537 6.38007 22.5537C6.26534 22.5572 6.26534 22.7347 6.38007 22.7347Z" fill="url(#paint1_linear_329_534)"/>
<path id="Vector_3" d="M4.84677 53.1004C4.85025 52.9507 4.85025 52.8045 4.85372 52.6548C4.8572 52.5156 4.64859 52.5191 4.64163 52.6548C4.63816 52.707 4.63468 52.7593 4.6312 52.8115C4.56514 52.714 4.49561 52.6166 4.43998 52.5052C4.38782 52.4007 4.18964 52.4425 4.20702 52.5678C4.25222 52.9263 4.37739 53.2848 4.57905 53.5946C4.55471 53.9497 4.53385 54.3047 4.50951 54.6597C4.47127 55.2375 4.34958 55.8432 4.48865 56.407C4.51647 56.5254 4.67988 56.5115 4.71117 56.407C4.89197 55.8606 4.81896 55.2306 4.82591 54.6597C4.82939 54.4091 4.83286 54.162 4.83634 53.9114C5.02409 54.0993 5.25009 54.2455 5.51781 54.3221C5.71251 54.3778 5.86897 54.1202 5.71947 53.9775C5.4135 53.6851 5.11101 53.4136 4.84677 53.1004Z" fill="url(#paint2_linear_329_534)"/>
<path id="Vector_4" d="M54.7365 33.0168C54.6705 33.0064 54.6079 32.9959 54.5418 32.989V25.4846C54.5418 23.5632 53.3388 21.9238 51.6491 21.266C51.8716 20.9771 52.1219 20.6986 52.2575 20.4062C52.4244 20.0512 52.4522 19.7136 52.4766 19.3237C52.5948 17.5416 52.5531 15.7282 52.5809 13.9426C52.5913 13.2464 52.713 12.2962 52.1011 11.788C51.8542 11.5827 51.5309 11.4713 51.1832 11.4191C51.1484 11.3843 51.0858 11.3738 51.0441 11.3982C50.4356 11.3286 49.7681 11.4156 49.2744 11.4887C49.2118 11.4991 49.1875 11.5444 49.184 11.5966C49.1527 11.5687 49.1214 11.5444 49.0901 11.5165C49.2083 11.4852 49.3265 11.4539 49.4447 11.4225C49.6534 11.3668 49.782 11.0675 49.5942 10.9074C46.8301 8.51615 43.9513 6.26066 40.9646 4.15135C39.3965 3.04797 37.8041 1.96895 36.1735 0.966506C34.9009 0.183347 34.2681 0.500091 33.0026 1.19275C29.8073 2.92962 26.9632 5.23385 24.2095 7.60073C21.2994 10.1034 18.4136 12.6303 15.5208 15.1539C15.0062 15.6029 14.4847 16.0484 13.9632 16.4939C13.9388 16.487 13.9145 16.48 13.8867 16.4765C12.7393 16.3094 11.6823 16.4313 10.681 16.7271C10.601 16.6645 10.455 16.6958 10.4098 16.8107C8.46621 17.4442 6.72081 18.7077 4.8885 19.7797C3.67159 20.4933 2.03745 20.8448 1.00482 21.8333C-0.0208604 22.8149 -0.0730136 24.228 0.0452004 25.5542V52.9752C0.0452004 55.4743 2.0757 57.5071 4.5721 57.5071H50.0184C52.5148 57.5071 54.5453 55.4743 54.5453 52.9752V43.3441C55.0286 43.1039 55.4597 42.7732 55.7935 42.3068C56.92 40.7266 58.2308 32.4773 54.7365 33.0168ZM52.7582 42.4112C52.6817 41.8543 52.6226 41.2974 52.6052 40.7301C52.5983 40.5177 52.2923 40.5212 52.2784 40.7301C52.2332 41.4819 52.2332 42.2442 52.3097 42.9925C52.1011 43.0308 51.882 43.0656 51.663 43.1004C51.6978 43.0343 51.7082 42.9647 51.6908 42.8916C51.6838 42.8046 51.6769 42.7175 51.6699 42.634C51.656 42.46 51.6421 42.2894 51.6282 42.1154C51.6004 41.7708 51.5761 41.4262 51.5517 41.0781C51.5448 40.9737 51.3918 40.9702 51.3883 41.0781C51.3814 41.5376 51.3779 42.0005 51.3675 42.46C51.364 42.6758 51.3223 42.9229 51.3466 43.1492C51.291 43.1561 51.2319 43.1666 51.1762 43.1735C51.1136 43.184 51.0476 43.1909 50.985 43.1979C50.9815 43.1874 50.978 43.177 50.9746 43.1666C50.9572 43.1387 50.9259 43.1143 50.8946 43.1039C50.905 43.0621 50.905 43.0134 50.8842 42.9577C50.8807 42.8985 50.8807 42.8359 50.8772 42.7767C50.8703 42.5644 50.8633 42.3556 50.8564 42.1432C50.8424 41.7499 50.832 41.3566 50.8181 40.9668C50.8146 40.8345 50.6164 40.8345 50.613 40.9668C50.5921 41.4506 50.5712 41.9344 50.5539 42.4182C50.5434 42.634 50.4565 43.0099 50.5226 43.264C50.3 43.2953 50.0741 43.3232 49.8515 43.351C49.8724 43.2745 49.8654 43.1979 49.8585 43.0204C49.8515 42.8185 49.8446 42.6131 49.8376 42.4112C49.8237 42.004 49.8098 41.5968 49.7959 41.1895C49.7889 41.012 49.5212 41.012 49.5177 41.1895C49.5073 41.7673 49.4934 42.3416 49.483 42.9194C49.4795 43.0552 49.4552 43.2292 49.4517 43.4032C49.2048 43.4311 48.9615 43.4589 48.7146 43.4868C48.6903 42.8394 48.6451 42.1954 48.5999 41.548C48.5859 41.367 48.3182 41.3636 48.3182 41.548C48.3148 42.2094 48.3113 42.8707 48.3321 43.5286C48.0609 43.5564 47.7897 43.5842 47.5185 43.6086C47.4907 43.5738 47.456 43.5529 47.4177 43.546C47.3482 43.3058 47.3795 42.8637 47.3656 42.7001C47.3412 42.3938 47.3134 42.0875 47.2891 41.7812C47.2786 41.6455 47.0805 41.642 47.077 41.7812C47.07 42.1885 47.0631 42.5992 47.0561 43.0064C47.0526 43.1735 47.004 43.4381 47.0318 43.6504C46.8858 43.6643 46.7397 43.6782 46.5937 43.6921C46.5902 43.6817 46.5937 43.6782 46.5902 43.6678C46.5728 43.619 46.5311 43.5808 46.4824 43.5703C46.3816 43.3371 46.3747 42.9159 46.3538 42.7175C46.319 42.4078 46.3086 42.0945 46.3086 41.7812C46.3086 41.6281 46.0895 41.635 46.0756 41.7812C46.0304 42.2755 46.027 42.7663 46.0791 43.2605C46.0965 43.4206 46.1 43.5912 46.1591 43.7235C45.7697 43.7548 45.3837 43.7826 44.9943 43.807C44.8448 43.8174 44.6849 43.8314 44.5145 43.8453C44.5145 43.6295 44.4832 43.4067 44.4693 43.1909C44.4485 42.8359 44.445 42.4809 44.4519 42.1258C44.4554 41.9866 44.2503 41.9901 44.2398 42.1258C44.1946 42.6479 44.0869 43.3267 44.1912 43.8766C43.9895 43.8975 43.7774 43.9184 43.5619 43.9393C43.5792 43.452 43.5236 42.9473 43.5062 42.4739C43.5027 42.3521 43.3219 42.3521 43.315 42.4739C43.2976 42.9577 43.242 43.4729 43.2594 43.9671C42.9882 43.9915 42.7065 44.0124 42.4284 44.0228C42.4701 43.546 42.4632 43.0587 42.4423 42.5853C42.4388 42.4948 42.3032 42.4948 42.2997 42.5853C42.2893 43.0761 42.2302 43.5529 42.1676 44.0333C41.9729 44.0367 41.7817 44.0367 41.5939 44.0333C41.6113 43.8557 41.6009 43.6747 41.6044 43.4937C41.6148 43.1143 41.6217 42.735 41.6322 42.3556C41.6322 42.2825 41.5314 42.2894 41.5244 42.3556C41.4827 42.7106 41.441 43.0621 41.3992 43.4172C41.3749 43.6121 41.3332 43.8209 41.3262 44.0228C41.1524 44.0124 40.9785 43.995 40.8116 43.9706C40.9646 43.5494 40.9299 43.0308 40.9577 42.5888C40.9646 42.4878 40.7908 42.46 40.7769 42.5644C40.7178 43.003 40.5856 43.4972 40.6413 43.9428C40.5439 43.9254 40.4466 43.9045 40.3527 43.8836C40.4327 43.4207 40.45 42.9264 40.5091 42.4774C40.5231 42.3799 40.3562 42.359 40.3388 42.453C40.2658 42.8881 40.1441 43.3545 40.085 43.807C39.9633 43.7652 39.8485 43.72 39.7373 43.6678C39.7581 43.2675 39.7616 42.8637 39.779 42.4739C39.7825 42.3938 39.6608 42.3938 39.6538 42.4739C39.6191 42.8254 39.5634 43.1874 39.5252 43.546C39.4035 43.4729 39.2922 43.3893 39.1914 43.2919C39.2853 42.7976 39.2957 42.2511 39.3583 41.7778C39.3722 41.6733 39.1879 41.6455 39.1706 41.7534C39.1184 42.1049 39.0662 42.4565 39.0141 42.8115C39.0037 42.8881 38.9897 42.9647 38.9758 43.0447C38.9585 43.0238 38.9411 43.0064 38.9272 42.9821C38.7985 42.7872 38.6942 42.5853 38.5969 42.3764C38.7046 41.997 38.7707 41.5968 38.8611 41.2208C38.8889 41.106 38.7116 41.0573 38.6838 41.1721C38.6143 41.4506 38.5238 41.7395 38.4508 42.0284C38.35 41.7604 38.27 41.4854 38.2109 41.2034C38.2283 40.9668 38.2422 40.7335 38.2596 40.5038C38.2666 40.4307 38.1518 40.4307 38.1449 40.5038C38.1379 40.57 38.131 40.6361 38.124 40.7022C38.0719 40.3228 38.0475 39.9365 38.044 39.5466C38.0336 37.9838 39.1497 37.1206 40.5335 36.5776C42.1433 35.9441 43.8922 35.7457 45.5958 35.5369C47.0387 35.3593 48.4921 35.1957 49.8933 34.8059C51.3987 34.3847 54.2985 33.0621 55.4945 34.4335C56.0891 35.7144 56.0856 37.2006 55.9674 38.5859C55.8735 39.6928 55.5919 40.5595 55.0738 41.3009C55.0286 41.2174 54.9834 41.1338 54.9382 41.0503C54.8861 40.9528 54.7157 41.019 54.7539 41.1269C54.8026 41.2626 54.8513 41.3949 54.9 41.5306C54.7678 41.6977 54.6218 41.8578 54.4654 42.011C54.4375 41.9448 54.4097 41.8822 54.3854 41.816C54.3124 41.6037 54.2567 41.3879 54.2185 41.1652C54.1942 41.019 53.9473 41.0503 53.9577 41.2C53.9751 41.4506 54.0134 41.7012 54.0759 41.9448C54.1072 42.0597 54.1351 42.1746 54.1803 42.2755C54.0864 42.3556 53.9855 42.4356 53.8847 42.5157C53.8465 42.4426 53.7595 42.4112 53.6796 42.4252C53.617 41.9692 53.5544 41.5097 53.4918 41.0538C53.471 40.8971 53.2137 40.9354 53.2206 41.0921C53.238 41.6525 53.2589 42.2128 53.2763 42.7767C53.1685 42.8115 53.0572 42.8429 52.946 42.8707C52.9564 42.7802 52.9668 42.6897 52.9703 42.5957C52.9668 42.4704 52.859 42.4008 52.7582 42.4112ZM52.6852 23.0794C52.261 22.7696 51.7847 22.5295 51.2875 22.3798C51.2527 22.3694 51.2179 22.3624 51.1832 22.3519C51.1971 22.3171 51.211 22.2754 51.211 22.2336C51.211 22.1884 51.2249 22.1431 51.2319 22.0979C51.7951 22.3032 52.2923 22.6443 52.6852 23.0794ZM21.6679 12.2684C21.7166 12.2092 21.6923 12.1326 21.6471 12.0978C21.8557 11.8472 22.0782 11.6244 22.3111 11.433C22.4919 11.7358 22.711 12.0456 22.5719 12.418C22.5163 12.5642 22.3563 12.7243 22.2694 12.8566C22.0886 13.1385 21.9148 13.4379 21.8626 13.7755C21.7757 14.3429 22.0678 14.865 22.4711 15.2478C23.0795 16.1563 24.0253 16.2572 25.0266 16.1145C25.4716 16.1145 25.9097 16.0519 26.3548 16.0136C26.6781 15.9857 27.1475 16.0275 27.4917 16.1911C27.5647 16.2572 27.6308 16.3338 27.6899 16.4243C28.0758 17.0021 27.8463 17.74 27.1301 18.2169C26.5912 18.5754 25.9202 18.7807 25.2908 18.7807H25.1379L25.423 19.9363L25.4855 19.9398C25.6733 20.1243 25.875 20.3505 26.1322 20.2844C26.1601 20.2949 26.1914 20.2983 26.2192 20.2983C26.2435 20.2949 26.2644 20.267 26.247 20.2461C26.473 20.1452 26.7059 19.9433 26.9215 19.8458C26.9389 19.8389 26.9563 19.8319 26.9771 19.8215C26.9806 19.8215 26.9841 19.8215 26.9876 19.8215C27.0015 19.8215 27.0084 19.8145 27.0119 19.8041C27.078 19.7762 27.1475 19.7484 27.2136 19.7205C27.2518 19.731 27.29 19.7345 27.3283 19.7345C27.3631 19.7345 27.3735 19.6927 27.3526 19.6683C27.45 19.6335 27.5508 19.6022 27.6482 19.5743L28.0063 20.1104C26.9458 20.6012 25.7428 20.7822 24.5885 20.5385C20.7605 19.7484 19.2619 15.2792 21.6679 12.2684ZM24.0113 20.9527H23.9279C23.8827 20.9005 23.841 20.8518 23.7958 20.7996C23.8236 20.81 23.8514 20.8204 23.8792 20.8309C23.9244 20.8692 23.9661 20.9144 24.0113 20.9527ZM21.1777 18.9826C21.6818 19.7588 22.332 20.4376 23.09 20.9527H12.0856C14.9228 18.1821 17.7391 15.3836 20.6666 12.7104C20.2355 13.5214 20.0442 14.4055 20.0442 15.2931C19.9434 16.5879 20.3328 17.9175 21.1777 18.9826ZM27.3526 19.4282C27.3804 19.4142 27.4048 19.4003 27.4326 19.3829C27.4813 19.4108 27.5299 19.4421 27.5786 19.4664L27.5856 19.4769C27.5578 19.4839 27.5334 19.4908 27.5056 19.4978C27.4674 19.4699 27.4187 19.456 27.3735 19.4351C27.3665 19.4351 27.3596 19.4316 27.3526 19.4282ZM27.3735 19.543C27.3074 19.5639 27.2448 19.5848 27.1788 19.6092C27.1649 19.6057 27.151 19.6022 27.1405 19.5952C27.1197 19.5848 27.1023 19.5743 27.0814 19.5639C27.1405 19.5361 27.1962 19.5082 27.2518 19.4804C27.2796 19.4943 27.304 19.5082 27.3318 19.5187C27.3457 19.5291 27.3596 19.5361 27.3735 19.543ZM27.5647 19.0174L27.4674 19.0836C27.0188 19.3725 26.473 19.5813 25.9966 19.6648C25.9862 19.6579 25.9758 19.6544 25.9688 19.6474C25.9445 19.6335 25.9202 19.6544 25.9167 19.6788C25.8124 19.6927 25.7115 19.7031 25.6142 19.7066L25.4438 19.0244C26.0766 18.9931 26.7303 18.7807 27.2657 18.4222C27.8915 18.0046 28.194 17.4094 28.1071 16.842C28.0967 16.654 28.0237 16.473 27.9089 16.3199C27.9055 16.3129 27.8985 16.3025 27.895 16.2955C27.4848 15.6794 26.8137 15.5193 25.6455 15.7595C25.1761 15.8604 24.7484 15.9266 24.359 15.9266C23.8792 15.857 23.3507 15.6794 22.9161 15.4079C22.8292 15.3209 22.7492 15.2235 22.6762 15.1121C22.1025 14.2489 22.2833 13.1733 23.1421 12.3763L23.2151 12.3066L22.5267 11.2694C22.6867 11.151 22.8501 11.0466 23.017 10.9526L23.6776 11.9481L23.7019 11.9307C23.7436 11.9412 23.7923 11.9133 23.7993 11.8716C24.3069 11.5618 24.8041 11.3877 25.3117 11.339L25.4682 12.0177C25.1413 12.0491 24.5607 12.143 23.907 12.5781C23.0622 13.142 22.9926 13.8938 23.2986 14.4159C23.2534 14.4299 23.2673 14.5064 23.3194 14.5064C23.3334 14.5064 23.3438 14.5064 23.3577 14.5064C23.7888 15.119 24.4494 15.1156 25.6663 14.8754C27.1579 14.5726 28.0063 14.8127 28.6008 15.7073C29.2927 16.748 28.8616 17.9071 28.1245 18.5963L28.0515 18.6659L28.7469 19.7136C28.58 19.8215 28.4061 19.9224 28.2288 20.0129L27.5647 19.0174ZM27.0571 19.6579C27.0084 19.6788 26.9563 19.6997 26.9076 19.7205C26.8763 19.7101 26.8415 19.7031 26.8102 19.6892C26.8068 19.6892 26.8033 19.6857 26.8033 19.6857C26.8659 19.6614 26.925 19.637 26.9841 19.6126C27.0049 19.6266 27.0293 19.644 27.0571 19.6579ZM26.1079 19.9468C26.0801 19.9329 26.0523 19.9189 26.0245 19.9015C26.0801 19.8911 26.1322 19.8807 26.1879 19.8702C26.2053 19.8807 26.2261 19.8911 26.2435 19.9015C26.2957 19.9294 26.3513 19.9642 26.4104 19.9886C26.3861 20.0025 26.3617 20.0199 26.3339 20.0303C26.2644 19.999 26.1809 19.9781 26.1079 19.9468ZM26.1948 20.093C26.1253 20.1208 26.0592 20.1313 25.9966 20.1278C25.9445 20.1069 25.8923 20.0895 25.8367 20.0756C25.8124 20.0582 25.7846 20.0408 25.7637 20.0164C25.7324 19.9886 25.7011 19.9642 25.6663 19.9433C25.7359 19.9398 25.8054 19.9363 25.8784 19.9259C25.9341 19.9642 25.9897 19.999 26.0488 20.0303C26.094 20.0512 26.1427 20.0756 26.1948 20.093ZM26.3235 19.8389C26.3721 19.825 26.4208 19.8145 26.4695 19.8006C26.5182 19.825 26.5634 19.8458 26.6121 19.8667C26.5808 19.8876 26.5495 19.905 26.5182 19.9259C26.4556 19.8911 26.3861 19.8667 26.3235 19.8389ZM26.6086 19.7553C26.6364 19.7449 26.6607 19.7379 26.6885 19.7275C26.7198 19.7449 26.7511 19.7588 26.7859 19.7727C26.7685 19.7797 26.7511 19.7867 26.7303 19.7971C26.7233 19.8006 26.7198 19.8041 26.7129 19.8041C26.6816 19.7867 26.6468 19.7727 26.6086 19.7553ZM22.2416 14.7953C21.9565 14.3846 21.8731 13.873 22.1651 13.2778C22.2103 13.1873 22.2833 13.0863 22.3668 12.9784C22.0608 13.5632 22.0156 14.2036 22.2416 14.7953ZM22.7771 12.4006C22.8118 12.3275 22.8362 12.2544 22.8431 12.1848L22.8987 12.2718C22.857 12.3136 22.8188 12.3554 22.7771 12.4006ZM23.4342 10.7508C23.5107 10.7821 23.5837 10.8204 23.6393 10.8865C23.535 10.8621 23.4342 10.8308 23.3368 10.7925C23.3681 10.7786 23.4029 10.7647 23.4342 10.7508ZM23.834 11.426C23.8132 11.426 23.6741 11.4191 23.6185 11.426L23.4446 11.165C23.5211 11.2067 23.6011 11.2415 23.688 11.2659C23.7367 11.2798 23.7958 11.2972 23.8514 11.3007C23.8688 11.346 23.8897 11.3912 23.9105 11.433C23.8827 11.426 23.8584 11.426 23.834 11.426ZM23.8827 11.5478C23.8375 11.5722 23.7923 11.5966 23.7471 11.6209L23.6915 11.5374C23.7228 11.5374 23.7541 11.5409 23.7819 11.5409C23.8132 11.5444 23.8479 11.5478 23.8827 11.5478ZM23.7193 11.1615C23.6185 11.1371 23.5211 11.1023 23.4272 11.0605C23.4133 11.0536 23.3994 11.0571 23.389 11.064C23.382 11.0466 23.3751 11.0292 23.3646 11.0153C23.4203 11.0397 23.4759 11.064 23.5315 11.0849C23.608 11.1128 23.6984 11.151 23.7853 11.1545C23.7888 11.165 23.7923 11.1719 23.7958 11.1824C23.7714 11.1719 23.7436 11.1684 23.7193 11.1615ZM23.5628 10.9979C23.4759 10.9735 23.3959 10.9387 23.3125 10.9039C23.3055 10.89 23.2986 10.8726 23.2882 10.8587C23.4168 10.9178 23.5559 10.9631 23.695 10.9735C23.6984 10.9735 23.6984 10.9735 23.7019 10.9735C23.7158 10.9944 23.7262 11.0188 23.7367 11.0397C23.6776 11.0257 23.615 11.0153 23.5628 10.9979ZM24.0218 14.7014C23.9835 14.6944 23.9488 14.6874 23.9105 14.6805C23.8897 14.67 23.8688 14.6596 23.8514 14.6492C23.8584 14.6457 23.8618 14.6422 23.8653 14.6387C23.8653 14.6387 23.8653 14.6387 23.8688 14.6387C23.9349 14.6422 24.0009 14.6457 24.067 14.6457C24.0913 14.6457 24.0948 14.6074 24.0705 14.6039C24.0079 14.5935 23.9453 14.583 23.8827 14.5795C23.8618 14.5761 23.8479 14.5935 23.8479 14.6109C23.8305 14.6109 23.8166 14.6143 23.8027 14.6178C23.761 14.59 23.7228 14.5587 23.6845 14.5238C23.8375 14.5308 23.994 14.5343 24.1435 14.5308C24.2095 14.583 24.2791 14.6283 24.3521 14.6666C24.2408 14.67 24.1296 14.6874 24.0218 14.7014ZM24.4738 14.7222C24.5329 14.7466 24.5955 14.764 24.658 14.7814C24.5642 14.7884 24.4807 14.7884 24.4008 14.7849C24.3973 14.7675 24.3868 14.7501 24.366 14.7466C24.359 14.7466 24.3521 14.7466 24.3486 14.7431C24.3868 14.7362 24.432 14.7292 24.4738 14.7222ZM23.5767 14.402C23.5628 14.3846 23.5489 14.3637 23.535 14.3463C23.5037 14.2976 23.4724 14.2454 23.4516 14.1897C23.5559 14.2141 23.6637 14.2384 23.768 14.2663C23.8201 14.2802 23.8723 14.2941 23.9244 14.3046C23.9488 14.3359 23.9731 14.3637 23.9974 14.3916C23.8584 14.3916 23.7158 14.3951 23.5767 14.402ZM23.7819 14.1932C23.6637 14.1723 23.5454 14.1514 23.4307 14.1305C23.4098 14.0748 23.3959 14.0191 23.3855 13.96C23.462 13.9948 23.542 14.0261 23.6219 14.047C23.6741 14.0609 23.7332 14.0748 23.7958 14.0818C23.8166 14.1236 23.8375 14.1653 23.8618 14.2036C23.834 14.2036 23.8062 14.1967 23.7819 14.1932ZM23.6706 13.5527C23.6706 13.5632 23.6706 13.5701 23.6706 13.5806C23.6393 13.5771 23.608 13.5736 23.5767 13.5701C23.5211 13.5597 23.469 13.5458 23.4133 13.5318C23.4203 13.5075 23.4307 13.4866 23.4377 13.4622C23.5072 13.5005 23.5906 13.5388 23.6706 13.5527ZM23.4794 13.3717C23.4933 13.3439 23.5072 13.316 23.5246 13.2882C23.5698 13.3056 23.6324 13.3195 23.6915 13.316C23.6845 13.3578 23.6776 13.3961 23.6741 13.4379C23.6532 13.4344 23.6289 13.4309 23.608 13.4239C23.5628 13.41 23.5211 13.3926 23.4794 13.3717ZM23.5454 13.6641C23.5872 13.6746 23.6324 13.685 23.6776 13.6885C23.681 13.7198 23.688 13.7511 23.695 13.7825C23.5941 13.7616 23.4933 13.7442 23.3959 13.7059C23.389 13.7024 23.382 13.7024 23.3786 13.7024C23.382 13.6746 23.3855 13.6467 23.3925 13.6154C23.4411 13.6363 23.4933 13.6537 23.5454 13.6641ZM23.7297 13.9217C23.7332 13.9391 23.7401 13.9565 23.7436 13.9704C23.7123 13.9669 23.681 13.9635 23.6497 13.96C23.5524 13.9426 23.4585 13.9112 23.3681 13.8764C23.3681 13.8556 23.3646 13.8347 23.3646 13.8138C23.4829 13.8625 23.608 13.9078 23.7297 13.9217ZM23.7193 13.2047C23.7123 13.2081 23.7054 13.2081 23.6984 13.2116C23.6602 13.2186 23.6185 13.2151 23.5802 13.2047C23.6463 13.1142 23.7332 13.0237 23.8375 12.9332C23.7888 13.0202 23.7471 13.1107 23.7193 13.2047ZM28.5765 18.6346C28.573 18.6206 28.5661 18.6067 28.5626 18.5928C28.58 18.5928 28.6008 18.5928 28.6182 18.5928C28.6043 18.6032 28.5904 18.6206 28.5765 18.6346ZM28.6043 19.0696L28.3609 18.7042C28.3853 18.6798 28.4096 18.6554 28.4305 18.6276C28.4757 18.7807 28.5313 18.9269 28.6043 19.0696ZM28.5382 18.5093C28.5661 18.471 28.5974 18.4396 28.6217 18.4014C28.6217 18.4014 28.6217 18.4014 28.6252 18.4014C28.6634 18.4118 28.7086 18.4222 28.7573 18.4292C28.7399 18.4501 28.7225 18.471 28.7051 18.4918C28.6947 18.4918 28.6843 18.4953 28.6738 18.4953C28.6286 18.5023 28.5834 18.5058 28.5382 18.5093ZM28.6808 18.3213C28.6982 18.2969 28.7156 18.2726 28.733 18.2482C28.7851 18.2517 28.8407 18.2586 28.8964 18.2621C28.879 18.2865 28.8581 18.3109 28.8407 18.3317C28.8268 18.3317 28.8164 18.3317 28.8025 18.3317C28.7608 18.3352 28.719 18.3283 28.6808 18.3213ZM28.7886 18.1612C28.8129 18.1229 28.8338 18.0881 28.8546 18.0498C28.9033 18.0533 28.952 18.0533 29.0007 18.0568C29.0181 18.0568 29.032 18.0568 29.0459 18.0568C29.0181 18.095 28.9902 18.1368 28.9624 18.1751C28.9068 18.1612 28.8477 18.1612 28.7886 18.1612ZM28.9972 17.9628C28.9659 17.9628 28.9346 17.9628 28.9033 17.9628C28.9172 17.9349 28.9311 17.9106 28.945 17.8827C28.9937 17.8792 29.0459 17.8723 29.0945 17.8688C29.1224 17.8653 29.1502 17.8653 29.178 17.8584C29.1537 17.8966 29.1328 17.9349 29.105 17.9732C29.0702 17.9593 29.0354 17.9628 28.9972 17.9628ZM29.0876 17.7713C29.0528 17.7748 29.0181 17.7818 28.9868 17.7853C29.0076 17.74 29.025 17.6948 29.0424 17.6495C29.0876 17.653 29.1328 17.653 29.178 17.6495C29.2128 17.6495 29.2545 17.646 29.2927 17.6391C29.2719 17.6843 29.2475 17.7331 29.2232 17.7783L29.2197 17.7748C29.1745 17.7574 29.1328 17.7679 29.0876 17.7713ZM29.171 17.5416C29.1397 17.5451 29.105 17.5486 29.0737 17.5486C29.0945 17.4894 29.1085 17.4268 29.1258 17.3676C29.2162 17.3711 29.2997 17.385 29.3901 17.3989C29.3762 17.4407 29.3588 17.479 29.3414 17.5207C29.2858 17.5173 29.2232 17.5381 29.171 17.5416ZM29.3831 17.2458C29.3797 17.2527 29.3762 17.2562 29.3727 17.2632C29.2997 17.2492 29.2232 17.2458 29.1502 17.2527C29.1571 17.2179 29.1606 17.1866 29.1641 17.1518C29.2093 17.1518 29.2545 17.1553 29.2997 17.1553C29.3518 17.1553 29.4075 17.1657 29.4527 17.1448C29.4492 17.1587 29.4492 17.1727 29.4457 17.1901C29.4422 17.204 29.4353 17.2214 29.4318 17.2353C29.4179 17.2214 29.3936 17.2249 29.3831 17.2458ZM29.2962 17.0508C29.258 17.0543 29.2162 17.0578 29.178 17.0613C29.1815 17.016 29.1849 16.9708 29.1849 16.9255C29.2371 16.9255 29.2858 16.9255 29.3379 16.9221C29.3866 16.9221 29.4457 16.929 29.484 16.8977C29.4805 16.9499 29.477 17.0021 29.4701 17.0578C29.4179 17.0265 29.3518 17.0439 29.2962 17.0508ZM29.331 16.8107C29.2823 16.8141 29.2371 16.8211 29.1884 16.8246C29.1884 16.7863 29.1849 16.7515 29.1849 16.7132C29.2301 16.7062 29.2788 16.6993 29.324 16.6923C29.3796 16.6854 29.4422 16.6784 29.477 16.6332C29.484 16.6958 29.4874 16.755 29.4874 16.8176C29.4457 16.7933 29.3797 16.8072 29.331 16.8107ZM29.4631 16.5635C29.4144 16.5322 29.3518 16.5531 29.2997 16.5635C29.258 16.574 29.2162 16.5844 29.178 16.5949C29.171 16.5461 29.1676 16.4939 29.1571 16.4452C29.1815 16.4452 29.2058 16.4452 29.2336 16.4452C29.2927 16.4417 29.3588 16.4452 29.4005 16.3965C29.4214 16.3721 29.4144 16.3303 29.3831 16.3164C29.331 16.292 29.2788 16.3164 29.2267 16.3234C29.1954 16.3269 29.1641 16.3303 29.1328 16.3303C29.1154 16.2607 29.098 16.1946 29.0737 16.125C29.0911 16.125 29.1085 16.125 29.1258 16.125C29.1815 16.125 29.2336 16.1285 29.2684 16.0762C29.2753 16.0658 29.2753 16.0449 29.2649 16.0345C29.2267 15.9857 29.1745 15.9962 29.1189 16.0031C29.0911 16.0066 29.0633 16.0101 29.032 16.0136C29.0007 15.9405 28.9694 15.8639 28.9277 15.7908C28.9902 15.7908 29.0563 15.7769 29.105 15.7456C29.1119 15.7421 29.1154 15.7351 29.1189 15.7282C29.2893 15.9892 29.4179 16.2677 29.4631 16.5635ZM29.032 15.6412C28.9729 15.662 28.9207 15.6794 28.8616 15.6829C28.8407 15.6481 28.8234 15.6133 28.799 15.5785C28.7677 15.5298 28.733 15.4845 28.6982 15.4358C28.7364 15.4323 28.7747 15.4323 28.8129 15.4288C28.8407 15.4288 28.8685 15.4288 28.8929 15.4184C28.9485 15.488 29.0041 15.5611 29.0563 15.6342C29.0493 15.6377 29.0389 15.6377 29.032 15.6412ZM28.8094 15.3244C28.7538 15.3349 28.6982 15.3418 28.6426 15.3523C28.6391 15.3523 28.6391 15.3557 28.6356 15.3557C28.5591 15.2618 28.4826 15.1782 28.3992 15.0982C28.4026 15.0982 28.4026 15.0982 28.4026 15.0982C28.4722 15.1051 28.5417 15.1156 28.6078 15.1016C28.646 15.1365 28.6808 15.1747 28.719 15.213C28.7503 15.2513 28.7816 15.2861 28.8094 15.3244C28.8094 15.3209 28.8094 15.3209 28.8094 15.3244ZM28.4096 15.0042C28.3748 15.0077 28.3574 15.046 28.3679 15.0738C28.2983 15.0146 28.2288 14.9589 28.1558 14.9067C28.194 14.8893 28.2358 14.8824 28.281 14.8824C28.2949 14.8824 28.3053 14.8719 28.3122 14.8615C28.3714 14.9032 28.4305 14.9485 28.4861 14.9937C28.4583 14.9972 28.4339 15.0007 28.4096 15.0042ZM28.0863 14.8615C27.7212 14.6317 27.2796 14.5204 26.7477 14.5169C26.7685 14.5134 26.7859 14.5099 26.8068 14.5099C27.3387 14.4542 27.822 14.5517 28.2358 14.8127C28.1836 14.8162 28.1349 14.8336 28.0863 14.8615ZM28.7921 19.3516C28.8512 19.4142 28.9207 19.4804 28.9902 19.55C28.9763 19.5604 28.9624 19.5709 28.945 19.5813L28.7921 19.3516ZM29.0911 19.4769C28.8859 19.2506 28.7295 19.0105 28.6182 18.732C28.6808 18.6798 28.7399 18.6276 28.799 18.5719C28.8025 18.5684 28.8094 18.5684 28.8129 18.5649C28.8199 18.5615 28.8234 18.551 28.8268 18.5441C29.2788 18.102 29.63 17.5381 29.6682 16.8977C29.7169 16.0832 29.1293 15.2583 28.507 14.7814C27.8776 14.2976 27.0745 14.2837 26.3304 14.4542C25.7637 14.583 25.1413 14.8476 24.5676 14.6178C24.4912 14.5865 24.4216 14.5517 24.359 14.5134C24.3695 14.5134 24.3799 14.5099 24.3868 14.5099C24.4355 14.503 24.4494 14.4264 24.3938 14.4159C24.3312 14.4055 24.2686 14.402 24.2061 14.3985C24.1748 14.3707 24.1435 14.3429 24.1157 14.3115C24.1261 14.2976 24.1226 14.2732 24.1052 14.2663C24.0913 14.2628 24.0809 14.2593 24.067 14.2524C24.0218 14.1932 23.9801 14.1305 23.9488 14.0679C23.9696 14.0505 23.9696 14.0122 23.9418 14.0017C23.9349 13.9983 23.9244 13.9983 23.9175 13.9948C23.907 13.9635 23.8966 13.9356 23.8862 13.9043C23.9105 13.8799 23.9036 13.8347 23.8653 13.8207C23.7714 13.3891 23.9383 12.9053 24.3243 12.6129C24.6476 12.4424 24.9397 12.3519 25.1726 12.3066C25.4855 12.324 25.7637 12.4459 26.0731 12.4842C26.0801 12.4842 26.0836 12.4807 26.087 12.4772C26.1079 12.4876 26.1288 12.4981 26.1461 12.512C26.1913 12.5364 26.24 12.4876 26.2261 12.4424C26.174 12.2788 26.1357 12.1117 26.1288 11.9377C26.1218 11.8437 26.1427 11.7358 26.1079 11.6453C26.0279 11.4295 25.6942 11.2137 25.5238 11.0745C25.4925 11.0501 25.4612 11.0675 25.4508 11.0919L25.3986 11.0954C24.9501 11.1197 24.5155 11.2381 24.0774 11.4504C24.0218 11.3112 23.9488 11.1754 23.8827 11.0397C23.8375 10.9457 23.7993 10.7751 23.7158 10.7055C23.6984 10.6916 23.6706 10.6811 23.6463 10.6672C26.1392 9.76572 29.2093 11.165 30.5096 13.7511C31.4588 15.6446 31.1876 17.5451 29.6369 19.0174C29.4631 19.1845 29.2823 19.3342 29.0911 19.4769ZM26.0488 12.2509C25.9375 12.1674 25.8228 12.0908 25.7115 12.0143L25.6872 11.8994C25.8019 11.9899 25.9202 12.0839 26.0453 12.1465C26.0523 12.2127 26.0662 12.2788 26.0836 12.3449C26.0697 12.338 26.0523 12.3275 26.0384 12.3206C26.0592 12.3101 26.0766 12.2684 26.0488 12.2509ZM25.861 12.3484C25.7637 12.3101 25.6663 12.2753 25.562 12.2509C25.5829 12.2509 25.6038 12.2475 25.6211 12.2475L25.7011 12.2405C25.7567 12.2823 25.8089 12.3171 25.861 12.3484ZM25.7359 12.1222C25.7428 12.1256 25.7498 12.1326 25.7567 12.1361C25.7498 12.1361 25.7428 12.1291 25.7359 12.1222ZM25.6559 11.7706L25.649 11.7358C25.6976 11.7706 25.7428 11.8019 25.7915 11.8367C25.8645 11.8855 25.9341 11.9481 26.0175 11.9795C26.021 11.9795 26.0245 11.9795 26.0245 11.9795C26.0279 11.9969 26.0279 12.0177 26.0314 12.0351C25.9167 11.9377 25.7811 11.8541 25.6559 11.7706ZM25.8367 11.7636C25.7637 11.7149 25.6942 11.6697 25.6211 11.6209L25.6072 11.5618C25.7359 11.6523 25.8645 11.7497 26.0001 11.8263C26.0036 11.8437 26.0036 11.8611 26.0071 11.875C25.9549 11.8367 25.8923 11.8019 25.8367 11.7636ZM25.6107 11.4852C25.6038 11.4817 25.5968 11.4817 25.5864 11.4817L25.562 11.3668C25.6594 11.4295 25.7567 11.4887 25.861 11.5409C25.9028 11.5931 25.941 11.6488 25.9654 11.708C25.8506 11.6279 25.7289 11.5583 25.6107 11.4852ZM25.5481 11.3007L25.5307 11.2207C25.5898 11.2764 25.6559 11.332 25.7185 11.3912C25.6594 11.3599 25.6038 11.3286 25.5481 11.3007ZM37.5677 15.1365C35.5894 16.2015 33.7362 17.4581 32.109 18.9861C31.4241 19.63 30.7426 20.2879 30.0715 20.9527H28.8129C31.504 18.6067 34.4663 16.7724 37.5677 15.1365ZM32.2064 19.7345C36.2013 15.9126 41.5035 13.7337 46.7954 12.1604C47.1187 12.4319 47.4386 12.7069 47.755 12.9819C41.886 14.5691 35.6937 16.7619 31.1911 20.9527H30.9547C31.3719 20.5455 31.7857 20.1347 32.2064 19.7345ZM35.8258 18.3109C34.7758 19.0174 33.7814 19.7971 32.8565 20.6638C32.7557 20.7578 32.6549 20.8552 32.554 20.9527H32.116C33.2703 19.9607 34.515 19.087 35.8258 18.3109ZM47.6507 13.8068C47.9219 14.0365 48.1896 14.2663 48.4573 14.4995C43.3393 15.8848 37.9815 17.7261 33.7084 20.9527H33.4615C37.4182 17.3919 42.5396 15.3174 47.6507 13.8068ZM48.3565 13.6015C48.5338 13.5492 48.7111 13.504 48.8884 13.4553C48.8259 13.6154 48.7772 13.779 48.7528 13.9426C48.6207 13.8312 48.4886 13.7163 48.3565 13.6015ZM48.9232 15.0146C48.9754 15.0599 49.031 15.1051 49.0831 15.1539C44.3233 16.4417 39.3513 18.1264 35.2382 20.9527H34.7758C38.9689 18.0324 44.0347 16.3303 48.9232 15.0146ZM49.5038 15.6829C49.6673 15.8221 49.8272 15.9614 49.9906 16.1006C45.7871 17.2353 41.4236 18.6868 37.6303 20.9562H36.3925C40.3631 18.4362 45.0082 16.8942 49.5038 15.6829ZM51.6387 19.7101C51.5448 19.5813 51.4231 19.4595 51.2944 19.3516C51.357 19.0905 51.4127 18.826 51.4544 18.5649C51.5517 18.6554 51.656 18.7459 51.7673 18.819C51.7603 18.9896 51.7464 19.1567 51.7256 19.3203C51.7012 19.4699 51.6734 19.5952 51.6387 19.7101ZM51.1032 20.6325C51.0476 20.5733 50.985 20.5211 50.9224 20.4689C50.9989 20.2914 51.0684 20.1069 51.131 19.9189C51.2249 20.0129 51.3257 20.0965 51.437 20.1626C51.3396 20.3227 51.2249 20.4689 51.1032 20.6325ZM48.8815 19.0035C48.8224 18.9652 48.7667 18.9269 48.7111 18.8887C48.6868 18.8747 48.6624 18.8678 48.6416 18.8678C48.659 18.8434 48.6729 18.8156 48.6903 18.7912C48.8363 18.7494 48.9823 18.7077 49.1283 18.6624C49.0449 18.7773 48.9649 18.8886 48.8815 19.0035ZM48.5164 19.0696C48.5268 19.094 48.5407 19.1184 48.5651 19.1393C48.6138 19.1741 48.659 19.2124 48.7042 19.2506C48.5825 19.4212 48.4643 19.5918 48.3495 19.7658C48.2869 19.7171 48.2278 19.6648 48.1652 19.6161C48.2869 19.4351 48.4017 19.2541 48.5164 19.0696ZM47.7132 20.2983C47.748 20.2496 47.7793 20.1939 47.8141 20.1487C47.8767 20.0582 47.9358 19.9642 47.9984 19.8702C48.0575 19.9294 48.1166 19.9851 48.1757 20.0442C48.0888 20.1835 48.0088 20.3262 47.9288 20.4689C47.8558 20.4097 47.7828 20.354 47.7132 20.2983ZM46.691 19.7832C46.7467 19.8354 46.7988 19.8876 46.8545 19.9398C46.7954 20.0338 46.7362 20.1243 46.6771 20.2183C46.6285 20.2949 46.5728 20.3714 46.5172 20.4515C46.4546 20.4097 46.3886 20.3714 46.3225 20.3331C46.4477 20.1487 46.5694 19.9642 46.691 19.7832ZM46.8127 20.6325C46.8579 20.5455 46.8997 20.4584 46.9449 20.3749C46.9866 20.2983 47.0283 20.2218 47.0735 20.1487C47.143 20.2148 47.2126 20.2809 47.2856 20.3505C47.1778 20.4759 47.07 20.6012 46.9692 20.7334C46.917 20.6986 46.8649 20.6638 46.8127 20.6325ZM47.9775 19.4595C47.8558 19.362 47.7376 19.2646 47.6159 19.1671C47.6228 19.1462 47.6298 19.1288 47.6263 19.1114C47.8801 19.0314 48.134 18.9583 48.3878 18.8817C48.2522 19.0766 48.1166 19.268 47.9775 19.4595ZM47.5012 19.3829C47.6055 19.4839 47.7063 19.5848 47.8106 19.6857C47.7167 19.811 47.6263 19.9329 47.5325 20.0547C47.5185 20.0721 47.5012 20.093 47.4873 20.1104C47.3969 20.0373 47.3099 19.9642 47.2195 19.8911C47.3134 19.7205 47.4073 19.55 47.5012 19.3829ZM47.0005 19.7101C46.9414 19.6614 46.8788 19.6126 46.8197 19.5604C46.8301 19.4838 46.7606 19.4108 46.6876 19.4108C46.8997 19.3411 47.1118 19.275 47.3238 19.2089C47.2161 19.3759 47.1083 19.543 47.0005 19.7101ZM46.6076 19.4525C46.4233 19.6892 46.2356 19.9259 46.0513 20.1626C45.8531 20.0477 45.6549 19.9398 45.4533 19.8354C45.4498 19.8354 45.4498 19.8354 45.4463 19.8319C45.8427 19.6927 46.2391 19.5569 46.6389 19.4247C46.625 19.4351 46.6146 19.4421 46.6076 19.4525ZM45.5611 20.7752C45.4463 20.6951 45.3281 20.6186 45.2099 20.5455C45.2655 20.441 45.3212 20.3401 45.3733 20.2357C45.3976 20.1904 45.3942 20.1452 45.3768 20.1104C45.5402 20.2078 45.7001 20.3088 45.8566 20.4097C45.8149 20.4619 45.7766 20.5141 45.7349 20.5663C45.6828 20.636 45.6202 20.7056 45.5611 20.7752ZM45.269 20.0234C45.2168 20.0129 45.1612 20.0303 45.1264 20.0895C45.0673 20.187 45.0082 20.2844 44.9457 20.3854C44.817 20.3088 44.6849 20.2357 44.5562 20.1626C44.5528 20.1591 44.5493 20.1591 44.5458 20.1556C44.7857 20.0686 45.0221 19.9816 45.262 19.8981C45.2447 19.9398 45.2447 19.9851 45.269 20.0234ZM44.4102 20.448C44.5389 20.5385 44.6605 20.6394 44.7509 20.7091C44.7023 20.7891 44.6571 20.8657 44.6084 20.9457C44.6084 20.9492 44.6049 20.9492 44.6049 20.9527H44.219C44.292 20.7856 44.3511 20.6186 44.4102 20.448ZM45.0187 20.9005C45.043 20.9179 45.0708 20.9353 45.0952 20.9527H44.9908C45.0013 20.9353 45.0082 20.9179 45.0187 20.9005ZM45.9122 20.9527C45.947 20.897 45.9818 20.8378 46.02 20.7856C46.0617 20.7265 46.1 20.6638 46.1417 20.6046C46.2043 20.6499 46.2703 20.6917 46.3329 20.7369C46.2912 20.8065 46.253 20.8796 46.2251 20.9562H45.9122V20.9527ZM47.2578 20.9527C47.3551 20.8344 47.4421 20.7056 47.529 20.5803C47.6228 20.6708 47.7167 20.7647 47.8106 20.8552C47.828 20.8866 47.8523 20.9109 47.8836 20.9249C47.894 20.9353 47.9045 20.9457 47.9149 20.9527H47.2578ZM48.4295 20.9527C48.3634 20.8587 48.2835 20.7682 48.1931 20.6882C48.2869 20.5698 48.3808 20.4515 48.4677 20.3262C48.5164 20.3714 48.5616 20.4202 48.6103 20.4654C48.7667 20.6186 48.9267 20.7891 49.0936 20.9527H48.4295ZM48.878 20.1939C48.8085 20.1347 48.7355 20.0791 48.6659 20.0199C48.7807 19.8424 48.8919 19.6648 49.0032 19.4839C49.2187 19.6544 49.4308 19.8284 49.6394 20.006C49.5386 20.187 49.4413 20.3714 49.3404 20.5559C49.184 20.4341 49.024 20.3123 48.878 20.1939ZM49.177 19.1984C49.2987 18.9896 49.4204 18.7807 49.5421 18.5754C49.5525 18.5858 49.563 18.5998 49.5769 18.6102C49.7785 18.739 49.9697 18.8782 50.1575 19.0244C50.0497 19.2332 49.9454 19.4421 49.8341 19.6509C49.6151 19.4978 49.3961 19.3446 49.177 19.1984ZM51.1901 18.3422C51.1345 18.5998 51.065 18.8538 50.985 19.1079C50.9676 19.094 50.9502 19.0801 50.9328 19.0662C50.8633 19.0105 50.7903 18.9652 50.7208 18.913C50.8251 18.6798 50.9259 18.4396 51.0163 18.1995C51.0754 18.2447 51.1345 18.2934 51.1901 18.3422ZM50.54 18.2691C50.4808 18.3944 50.4113 18.5197 50.3487 18.645C50.227 18.5649 50.1019 18.4953 49.9767 18.4257C50.1645 18.3735 50.3522 18.3213 50.54 18.2691ZM50.5191 19.3272C50.5817 19.3794 50.6443 19.4282 50.7068 19.4839C50.7451 19.5187 50.7833 19.5569 50.8216 19.5952C50.8181 19.6057 50.8146 19.6161 50.8112 19.6266C50.7381 19.8145 50.6512 19.9955 50.5608 20.173C50.4426 20.086 50.3209 19.999 50.2062 19.912C50.314 19.7205 50.4183 19.5256 50.5191 19.3272ZM50.4669 16.9012C50.38 16.8281 50.2966 16.755 50.2097 16.6819C50.3418 16.6471 50.4704 16.6123 50.5991 16.5775C50.5573 16.6854 50.5121 16.7933 50.4669 16.9012ZM50.2201 17.4964C50.1853 17.5764 50.154 17.66 50.1193 17.74C50.0393 17.7609 49.9558 17.7853 49.8759 17.8062C49.8272 17.7783 49.7577 17.7783 49.7159 17.8375C49.7125 17.841 49.709 17.8479 49.7055 17.8514C46.7814 18.6659 43.7983 19.6405 41.0029 20.9492H38.8959C42.2093 19.1288 45.8844 17.8827 49.4969 16.8733C49.7403 17.0822 49.9802 17.291 50.2201 17.4964ZM37.6859 21.8855C37.6824 21.9273 37.6824 21.9656 37.679 22.0074C37.6755 22.0456 37.6755 22.0839 37.672 22.1187C37.4286 22.1187 37.1852 22.1222 36.9453 22.1222C36.9593 22.0456 36.9697 21.9656 36.9697 21.8855H37.6859ZM38.0197 22.1153C38.0162 22.0805 38.0162 22.0422 38.0127 22.0039C38.0093 21.9621 38.0093 21.9238 38.0058 21.8821H38.5099C38.5065 21.9586 38.5099 22.0352 38.5238 22.1118C38.3709 22.1118 38.2179 22.1153 38.0684 22.1153C38.051 22.1153 38.0336 22.1153 38.0197 22.1153ZM38.8055 22.1118C38.795 22.0909 38.7811 22.077 38.7742 22.0561C38.7533 22.0004 38.7464 21.9447 38.7464 21.8855H39.2679C39.2749 21.9621 39.2922 22.0352 39.2992 22.1083C39.1358 22.1083 38.9689 22.1083 38.8055 22.1118ZM39.6608 22.1048C39.6573 22.0909 39.6538 22.0735 39.6504 22.0596C39.6365 22.0074 39.6225 21.9447 39.6086 21.8855H43.1377C43.1168 21.9169 43.0925 21.9447 43.0716 21.976C43.0438 22.0143 43.0368 22.0526 43.0438 22.0839C41.9138 22.0909 40.7873 22.0979 39.6608 22.1048ZM42.5536 20.9527C43.0681 20.7334 43.5862 20.5211 44.1112 20.3192C44.0173 20.542 43.9061 20.7508 43.7844 20.9527H42.5536ZM43.6349 21.8855H50.0184C50.1714 21.8855 50.3244 21.8995 50.4704 21.9169C50.4669 22.0004 50.4704 22.0909 50.4809 22.1918C48.7598 21.8751 46.8927 22.0631 45.1856 22.0735C44.6049 22.077 44.0243 22.0805 43.4436 22.0839C43.5097 22.0178 43.5723 21.9551 43.6349 21.8855ZM50.1366 20.9597C50.0949 20.9597 50.0567 20.9527 50.0149 20.9527H49.7889C49.7368 20.897 49.6777 20.8483 49.6186 20.7961C49.7403 20.6325 49.862 20.4689 49.9732 20.2983C50.088 20.4028 50.2027 20.5107 50.3209 20.6186C50.2583 20.7299 50.1992 20.8448 50.1366 20.9597ZM50.6895 20.9353C50.7312 20.9666 50.7729 20.998 50.8146 21.0258C50.7625 21.0154 50.7068 21.0084 50.6547 21.0014C50.6651 20.9806 50.6756 20.9562 50.6895 20.9353ZM51.9064 13.6397C51.8751 14.9346 51.8229 16.2329 51.7812 17.5277C51.7742 17.747 51.7743 17.9767 51.7743 18.2099C51.7047 18.1612 51.6317 18.1159 51.5691 18.0707C51.5517 18.0602 51.5378 18.0463 51.5204 18.0359C51.5482 17.7713 51.5691 17.5138 51.583 17.2701C51.59 17.1344 51.3883 17.1413 51.3744 17.2701C51.3605 17.3989 51.3396 17.5207 51.3223 17.6495C51.3083 17.6321 51.2979 17.6147 51.2805 17.5973C51.2701 17.5869 51.2597 17.5799 51.2492 17.5695C51.4822 16.8629 51.6665 16.1459 51.809 15.4428C51.8334 15.3244 51.656 15.2722 51.6282 15.394C51.4509 16.0728 51.2249 16.7132 50.9676 17.3293C50.912 17.2806 50.8563 17.2353 50.8007 17.1866C51.3883 15.9997 51.6665 14.6039 51.816 13.3439C51.8299 13.229 51.6282 13.2012 51.6108 13.316C51.4579 14.2837 51.1693 15.1539 50.832 16.0136C50.7764 15.9649 50.7208 15.9196 50.6651 15.8709C51.1415 14.8858 51.3709 13.678 51.6317 12.5816C51.8125 12.8113 51.9203 13.142 51.9064 13.6397ZM51.1102 12.1918C51.2319 12.244 51.3466 12.3066 51.4439 12.3867C51.065 13.4344 50.5817 14.5621 50.4044 15.6481C50.3522 15.6029 50.3 15.5576 50.2444 15.5124C50.6512 14.4299 50.9328 13.323 51.1102 12.1918ZM50.3452 12.5781C50.3348 12.5712 50.3279 12.5642 50.3174 12.5538C50.3452 12.3658 50.3696 12.1744 50.3904 11.9864C50.5539 12.0177 50.7138 12.056 50.8633 12.0978C50.6582 13.0167 50.3939 13.9112 50.0741 14.7953C50.008 14.8824 49.9558 14.9659 49.9176 15.0529C49.7507 14.9102 49.5838 14.7675 49.4134 14.6213C49.4134 14.5517 49.3891 14.4821 49.3265 14.4299C49.2222 14.3394 49.1144 14.2489 49.0101 14.1584C49.0588 13.9739 49.0936 13.7859 49.1457 13.5945C49.1666 13.5144 49.1979 13.4379 49.2257 13.3578C49.4552 13.2952 49.6846 13.229 49.9141 13.1699C49.7959 13.6084 49.6568 14.0435 49.4969 14.4856C49.4413 14.6317 49.6881 14.7362 49.7507 14.5935C49.7542 14.583 49.7611 14.5726 49.7646 14.5587C49.7646 14.5587 49.7646 14.5587 49.7646 14.5552C49.9697 14.0818 50.1193 13.5841 50.2236 13.0759C50.4148 13.0063 50.5226 12.7313 50.3452 12.5781ZM50.1575 11.9446C50.1366 12.0874 50.1227 12.2301 50.0949 12.3693C50.0358 12.3206 49.9767 12.2684 49.9211 12.2196C49.9976 12.1256 50.0741 12.0351 50.1505 11.9446C50.154 11.9412 50.1575 11.9412 50.1575 11.9446ZM49.9419 11.8994C49.8898 11.9655 49.8411 12.0351 49.7889 12.1013C49.6603 11.9899 49.5282 11.8785 49.3995 11.7706C49.5769 11.8228 49.7611 11.8646 49.9419 11.8994ZM49.476 12.6443C49.4656 12.6477 49.4517 12.6512 49.4413 12.6547C49.4065 12.6338 49.3578 12.6338 49.3265 12.6791C49.323 12.6826 49.323 12.686 49.3196 12.6895C49.0797 12.7556 48.8363 12.8218 48.5964 12.8879C48.2348 12.5747 47.8697 12.2614 47.5012 11.9516C47.7932 11.8681 48.0853 11.7845 48.3773 11.7045C48.7459 12.0177 49.111 12.331 49.476 12.6443ZM48.7285 10.9666C45.1404 11.9377 41.4305 13.135 38.0614 14.8789C39.7095 14.0226 41.3923 13.2186 43.0959 12.418C43.2072 12.3658 43.242 12.237 43.2246 12.1256C43.0195 10.796 43.4228 9.61954 44.3893 8.68323C44.4693 8.60665 44.4902 8.44306 44.3963 8.363C42.8039 7.05426 41.281 5.65501 39.7616 4.26273C39.5982 4.11306 39.3722 3.85549 39.1254 3.58748C42.4701 5.85689 45.6654 8.32471 48.7285 10.9666ZM39.6608 4.73611C40.3214 5.34175 40.9855 5.94739 41.653 6.54259C42.0146 6.86282 43.84 8.06366 43.7844 8.63798C43.767 8.81897 43.1238 9.56384 43.0403 9.74484C42.7865 10.2913 42.7761 10.8065 42.6474 11.3738C42.8526 10.4653 42.6544 11.8611 42.6648 11.8437C42.4458 12.2718 41.8721 12.3902 41.4757 12.5712C40.6378 12.9541 39.8068 13.3439 38.9758 13.7442C36.0101 15.1782 33.1521 16.8107 30.5409 18.8225C30.4818 18.8678 30.4227 18.9165 30.3636 18.9652C34.1812 14.6248 28.1106 8.61709 23.5211 10.1869C24.6789 9.19837 25.861 8.23073 27.0745 7.30487C28.5695 6.15972 30.0994 5.06329 31.6605 4.01212C32.5645 3.403 33.159 3.19764 34.2229 3.36819C34.7862 3.45869 35.3529 3.44129 35.9162 3.37167C36.5386 3.2951 37.1992 2.98879 37.7937 3.16283C38.4995 3.36819 39.1184 4.23489 39.6608 4.73611ZM16.1258 15.4567C19.5679 12.4528 22.9509 9.36544 26.4765 6.45906C28.274 4.97628 30.1341 3.56659 32.1299 2.36575C33.013 1.8332 34.3168 0.757663 35.3738 1.16491C36.1457 1.46077 36.9071 2.05249 37.6233 2.56415C37.2861 2.60592 36.8793 2.77647 36.6116 2.82868C35.5928 3.02708 34.821 2.98531 33.8022 2.83216C33.3503 2.76255 33.093 2.68597 32.6479 2.84261C31.9352 3.09322 31.1946 3.76499 30.5792 4.18616C29.7934 4.72219 29.0181 5.27214 28.2497 5.83253C22.9127 9.73092 18.1841 14.2558 13.4973 18.8678C12.7949 19.4734 12.0961 20.0825 11.4111 20.7091C11.3173 20.7961 11.2338 20.8761 11.1538 20.9527H9.7457C9.90564 20.81 10.0656 20.6673 10.2255 20.5281C10.302 20.542 10.3889 20.5246 10.448 20.4724C10.5454 20.3854 10.6184 20.2949 10.681 20.1939C10.8096 20.2322 10.9383 20.2566 11.0704 20.2566C11.2164 20.2566 11.286 20.0756 11.1886 19.9746C11.1399 19.9224 11.0843 19.8772 11.0252 19.8319C11.1573 19.7171 11.2894 19.6022 11.4216 19.4908C11.512 19.4839 11.5815 19.4177 11.6024 19.3342C11.8284 19.1393 12.0543 18.9443 12.2803 18.7494C12.3047 18.7529 12.3255 18.7564 12.3499 18.7564C12.4646 18.7599 12.5515 18.6415 12.5342 18.5336C12.6315 18.4501 12.7289 18.3665 12.8262 18.283C12.9131 18.3004 12.9966 18.3074 13.0835 18.2865C13.1913 18.2621 13.2434 18.1229 13.1878 18.0324C13.1809 18.0185 13.167 18.0115 13.16 18.0011C14.1544 17.1518 15.1488 16.3094 16.1258 15.4567ZM9.11986 20.5768C9.12334 20.6012 9.13377 20.6255 9.1442 20.6429C9.03989 20.7369 8.93559 20.8344 8.83128 20.9318C8.81737 20.8901 8.79303 20.8518 8.74436 20.8204C8.69568 20.7856 8.64005 20.7578 8.5879 20.7299C8.57051 20.6847 8.53227 20.6499 8.48359 20.6394C8.51141 20.4863 8.53922 20.3297 8.56704 20.173C8.74088 20.2914 8.92168 20.4167 9.11291 20.5037C9.11638 20.5246 9.11986 20.5524 9.11986 20.5768ZM5.94895 20.9527C5.9559 20.8692 5.96633 20.7856 5.97676 20.7056C5.98371 20.6429 5.99067 20.5803 6.0011 20.5176C6.15756 20.6116 6.31054 20.7125 6.467 20.803C6.46352 20.8518 6.45309 20.9005 6.45309 20.9492H5.94895V20.9527ZM6.19928 19.7762C6.31749 19.8702 6.43571 19.9711 6.56435 20.0686C6.5574 20.1104 6.55392 20.1521 6.54697 20.1974C6.53306 20.2914 6.51915 20.3854 6.50177 20.4793C6.34531 20.4028 6.18885 20.3297 6.03239 20.2531C6.04978 20.1173 6.06716 19.9816 6.08454 19.8458C6.12279 19.8215 6.16104 19.7971 6.19928 19.7762ZM7.12413 19.2298C7.23191 19.3063 7.3397 19.3794 7.44748 19.449C7.38837 19.6648 7.3397 19.8876 7.30841 20.1069C7.16238 20.0303 7.01635 19.9537 6.87727 19.8702C6.89118 19.6962 6.90509 19.5256 6.919 19.3516C6.98506 19.3098 7.05459 19.2715 7.12413 19.2298ZM8.64353 19.6927C8.67134 19.4978 8.6922 19.3029 8.70959 19.1079C8.84866 19.1984 8.98774 19.282 9.12681 19.369C9.10943 19.55 9.099 19.731 9.09552 19.9085C8.93906 19.8319 8.78608 19.7623 8.64353 19.6927ZM8.0455 20.4584C7.9412 20.4132 7.84037 20.3679 7.73606 20.3227C7.74649 20.2183 7.75692 20.1139 7.77083 20.006C7.78474 19.9015 7.80212 19.7971 7.81603 19.6927C7.93077 19.7658 8.04898 19.8389 8.16372 19.9085C8.12547 20.093 8.08375 20.2775 8.0455 20.4584ZM7.28059 20.5942C7.28407 20.6882 7.2945 20.7787 7.30841 20.8657C7.14847 20.7822 6.98506 20.7056 6.82512 20.629C6.83207 20.5141 6.83903 20.3993 6.84598 20.2844C6.98853 20.3923 7.13109 20.4967 7.28059 20.5942ZM7.61089 20.9527C7.62828 20.9075 7.63871 20.8622 7.64914 20.817C7.73606 20.8657 7.82298 20.9109 7.91338 20.9527H7.61089ZM9.57881 20.26C9.56143 20.2392 9.53709 20.2183 9.51623 20.1974C9.55099 20.0164 9.57881 19.8354 9.59619 19.6509C9.61706 19.6614 9.63444 19.6753 9.6553 19.6857C9.76656 19.7484 9.88478 19.818 10.003 19.8841C9.86044 20.0094 9.72136 20.1347 9.57881 20.26ZM11.4876 17.3084C11.498 17.3189 11.505 17.3258 11.5154 17.3363C11.4702 17.3467 11.432 17.378 11.425 17.4337C11.4111 17.5381 11.3937 17.6426 11.3764 17.747C11.1886 17.653 11.0009 17.5625 10.8166 17.4685C11.0356 17.4059 11.2616 17.3537 11.4876 17.3084ZM12.0822 18.095C11.9605 18.0254 11.8318 17.9628 11.7032 17.9036C11.7032 17.7818 11.7067 17.66 11.7101 17.5416C11.8527 17.6774 11.9987 17.8027 12.1621 17.9141C12.1865 17.9315 12.2108 17.9489 12.2351 17.9663C12.183 18.008 12.1308 18.0498 12.0822 18.095ZM11.2234 18.2238C11.2477 18.2378 11.2721 18.2552 11.2964 18.2726C11.2755 18.4466 11.2581 18.6206 11.2616 18.7947C11.2581 18.7982 11.2547 18.8016 11.2477 18.8051C11.06 18.6589 10.8374 18.5406 10.6427 18.4292C10.6532 18.2482 10.6636 18.0672 10.674 17.8862C10.8583 18.0011 11.0391 18.1125 11.2234 18.2238ZM10.8027 19.188C10.7297 19.2506 10.6601 19.3098 10.5871 19.3725C10.5941 19.2576 10.601 19.1427 10.608 19.0279C10.6706 19.0836 10.7366 19.1358 10.8027 19.188ZM10.1212 19.3759C10.0099 19.3307 9.90216 19.2854 9.80133 19.2367C9.7457 19.2089 9.68659 19.1775 9.63096 19.1497C9.64487 18.8608 9.64835 18.5684 9.64835 18.283C9.82567 18.4222 10.0065 18.558 10.1907 18.6902C10.1664 18.92 10.1455 19.1462 10.1212 19.3759ZM13.153 17.1831C12.9722 17.3363 12.788 17.4929 12.6072 17.646C12.5446 17.6182 12.4855 17.5938 12.4299 17.5625C12.3082 17.4964 12.1934 17.4233 12.0752 17.3502C12.1587 17.298 12.2421 17.2423 12.3255 17.1901C12.6002 17.1727 12.8749 17.1657 13.153 17.1831ZM10.2742 17.6426C10.2846 17.6495 10.295 17.6565 10.3055 17.66C10.2846 17.841 10.2638 18.022 10.2464 18.203C10.0517 18.0985 9.85696 18.0115 9.6553 17.9349C9.6553 17.921 9.6553 17.9036 9.6553 17.8897C9.85696 17.7992 10.0656 17.7157 10.2742 17.6426ZM9.30414 18.0428C9.26241 18.3317 9.21374 18.6241 9.17549 18.92C9.02599 18.8434 8.87996 18.7633 8.73045 18.6833C8.73393 18.5615 8.74088 18.4396 8.7374 18.3213C8.92516 18.2238 9.11291 18.1333 9.30414 18.0428ZM8.50445 18.558C8.46968 18.5371 8.43492 18.5197 8.40015 18.5023C8.44882 18.4779 8.49402 18.4501 8.5427 18.4257C8.52531 18.4675 8.51488 18.5127 8.50445 18.558ZM8.0768 18.6798C8.08375 18.6868 8.0907 18.6972 8.10114 18.7042C8.20196 18.7738 8.30627 18.8399 8.4071 18.9095C8.35495 19.1045 8.30627 19.2994 8.26107 19.4978C8.13243 19.4316 8.00726 19.3655 7.87861 19.2994C7.90991 19.1114 7.94468 18.92 7.9864 18.732C8.01421 18.7111 8.0455 18.6972 8.0768 18.6798ZM7.53788 19.1358C7.4892 19.1149 7.444 19.0905 7.39533 19.0696C7.46139 19.0314 7.52745 18.9931 7.59351 18.9513C7.57613 19.0105 7.55874 19.0731 7.53788 19.1358ZM6.61651 19.7031C6.56783 19.6718 6.52263 19.644 6.47395 19.6126C6.52958 19.5778 6.58522 19.5465 6.64084 19.5117C6.63389 19.5778 6.62346 19.6405 6.61651 19.7031ZM5.82378 20.1487C5.7751 20.1243 5.72643 20.0999 5.67775 20.0791C5.73686 20.0442 5.79596 20.0094 5.85507 19.9746C5.84464 20.0338 5.83421 20.093 5.82378 20.1487ZM5.46914 20.1904C5.57344 20.2566 5.67775 20.3192 5.78205 20.3819C5.76467 20.4793 5.74729 20.5733 5.7299 20.6708C5.71252 20.7647 5.69166 20.8587 5.67427 20.9527H5.5352C5.49 20.9249 5.4448 20.8935 5.3996 20.8657C5.36135 20.6708 5.264 20.4967 5.12145 20.3749C5.23618 20.3157 5.35092 20.2531 5.46914 20.1904ZM4.9476 20.4689C5.02062 20.5281 5.07972 20.6046 5.12145 20.6882C5.03453 20.629 4.95108 20.5698 4.86416 20.5072C4.89197 20.4933 4.91979 20.4828 4.9476 20.4689ZM4.60687 20.629C4.71813 20.7404 4.83287 20.8518 4.95456 20.9527H4.56862C4.26961 20.9527 3.97755 20.984 3.69245 21.0397C4.00189 20.9075 4.30438 20.7717 4.60687 20.629ZM0.973528 25.4846C0.973528 23.5006 2.5868 21.8855 4.56862 21.8855H4.57558C1.57155 22.7 1.08826 27.2632 0.973528 30.8762V25.4846ZM1.1126 53.9428C1.05697 53.7444 1.01525 53.5425 0.994389 53.3302C1.03959 53.4938 1.08479 53.6574 1.13694 53.8175C1.12651 53.8628 1.11956 53.9045 1.1126 53.9428ZM1.72453 54.3013C1.67586 54.0403 1.63066 53.7827 1.58546 53.5217C1.62718 53.3476 1.6689 53.1771 1.72106 53.0065C1.8045 52.7246 1.90881 52.4496 2.02007 52.1781C2.02007 52.467 2.01659 52.7524 2.00616 53.0413C1.8949 53.6539 1.78712 54.2665 1.68629 54.8826C1.68629 54.8861 1.68281 54.8896 1.68281 54.8931C1.655 54.8756 1.62718 54.8582 1.59937 54.8408C1.56807 54.8234 1.54374 54.8443 1.53678 54.8722C1.48463 54.7886 1.429 54.7086 1.3838 54.625C1.39075 54.5833 1.39771 54.5415 1.40118 54.4997C1.52983 54.6146 1.76278 54.5171 1.72453 54.3013ZM2.26693 51.6212C2.25997 51.663 2.25302 51.7047 2.24259 51.7465C2.23911 51.7152 2.23564 51.6838 2.23216 51.6525C2.29474 51.4646 2.33647 51.2557 2.26693 51.6212ZM1.56807 54.9348C1.59937 54.9522 1.62718 54.9696 1.65847 54.987C1.65152 55.0079 1.64804 55.0323 1.64109 55.0532C1.61327 55.0149 1.59589 54.9731 1.56807 54.9348ZM7.49963 56.5708C7.53093 56.4246 7.33274 56.3654 7.2493 56.4803C7.05112 56.4106 6.95724 56.2958 6.96767 56.1322C6.9642 56.0417 6.96072 55.9547 6.96072 55.8642C6.95724 55.6692 6.95376 55.4743 6.95029 55.2794C6.94681 55.0149 6.94333 54.7503 6.93986 54.4858C7.2945 54.6564 7.72563 54.8443 8.14981 54.907C8.122 55.1994 8.09418 55.4917 8.0768 55.7876C8.06289 56.0312 7.99683 56.348 8.12547 56.5742H7.49963V56.5708ZM53.6135 51.924C53.5683 51.8753 53.5196 51.8231 53.4744 51.7743C53.3667 51.656 53.2032 51.8265 53.3006 51.9484C53.4049 52.0737 53.5092 52.199 53.6135 52.3208V52.9717C53.6135 53.1283 53.5996 53.2815 53.5822 53.4346C53.5648 53.4172 53.5475 53.3963 53.5301 53.3789C53.2797 53.0761 53.0781 52.7385 52.9181 52.3835C52.8625 52.2582 52.6469 52.3487 52.6956 52.4774C52.8382 52.8708 53.0259 53.2432 53.2693 53.5843C53.3388 53.6783 53.4119 53.7897 53.4918 53.8941C53.4188 54.1656 53.3215 54.4266 53.1893 54.6703C53.0224 54.5276 52.8417 54.3918 52.6991 54.2387C52.3723 53.8906 52.108 53.4973 51.882 53.0761C51.7986 52.9195 51.5865 53.0587 51.6526 53.2119C51.8473 53.6748 52.0941 54.1029 52.4036 54.4997C52.5531 54.6912 52.7234 54.9174 52.9216 55.0914C52.7825 55.2794 52.6296 55.4534 52.4592 55.6136C52.4488 55.6066 52.4418 55.5962 52.4314 55.5892C52.3375 55.5265 52.2436 55.5962 52.2193 55.6867C51.6282 55.0323 51.1762 54.2944 50.8876 53.452C50.8285 53.278 50.5608 53.3476 50.6095 53.5286C50.8668 54.4545 51.3049 55.3003 51.9272 56.0278C51.7186 56.16 51.4961 56.2679 51.2631 56.3549C51.2631 56.348 51.2666 56.3375 51.2631 56.3306C51.1067 55.9512 50.7173 55.7145 50.4669 55.3978C50.1436 54.987 49.9072 54.5276 49.7403 54.0333C49.6881 53.8732 49.4482 53.9393 49.4899 54.1029C49.6151 54.6181 49.8133 55.1089 50.0984 55.5579C50.2966 55.8676 50.5608 56.2993 50.912 56.4663C50.6269 56.5394 50.3313 56.5812 50.0254 56.5812H49.8411C49.8376 56.5359 49.8272 56.4872 49.8029 56.4315C49.7368 56.2888 49.5456 56.3793 49.5351 56.5046C49.549 56.3515 49.2952 56.1252 49.2118 56.0173C49.0797 55.8433 48.9545 55.6658 48.8328 55.4848C48.5894 55.1263 48.3634 54.7538 48.1513 54.3744C48.0748 54.2387 47.8801 54.357 47.9462 54.4963C48.2626 55.175 48.6172 55.9895 49.1075 56.5812H48.1096C47.9045 56.2818 47.755 55.8851 47.595 55.5996C47.3621 55.1889 47.1291 54.7782 46.8962 54.3675C46.8927 54.364 46.8927 54.364 46.8892 54.3605C46.9136 54.3501 46.9379 54.3431 46.9588 54.3292C47.143 54.2178 47.143 53.9533 46.9588 53.8419C46.6458 53.6504 46.1347 53.8245 45.794 53.8767C45.5854 53.908 45.5854 54.263 45.794 54.2979C46.0409 54.3361 46.3712 54.4336 46.6563 54.4162C46.6493 54.444 46.6493 54.4754 46.6667 54.5067C46.9379 55.0775 47.2021 55.6518 47.4768 56.2192C47.529 56.3271 47.5777 56.4559 47.6333 56.5847H46.7119C46.6007 56.3549 46.4581 56.1391 46.3399 55.9129C46.1417 55.5405 45.9644 55.1576 45.801 54.7677C45.7558 54.6564 45.5715 54.6981 45.6132 54.82C45.8044 55.3769 46.0096 56.0556 46.3434 56.5847H45.2829C45.2829 56.5777 45.2864 56.5673 45.2864 56.5603C45.2447 56.2819 45.0291 56.0486 44.9005 55.8015C44.7405 55.4987 44.6153 55.1819 44.511 54.8548C44.4624 54.6947 44.2155 54.7608 44.2607 54.9244C44.3511 55.262 44.4624 55.5857 44.6084 55.9025C44.7162 56.1357 44.8274 56.4106 45.0256 56.5847H44.0382C44.0417 56.5777 44.0451 56.5708 44.0451 56.5603C44.0417 56.3271 43.8574 56.1357 43.7531 55.9338C43.614 55.6658 43.4993 55.3873 43.4089 55.1019C43.3706 54.9835 43.1933 55.0323 43.2211 55.1541C43.2907 55.4465 43.3776 55.7319 43.4958 56.0104C43.5758 56.1983 43.6592 56.4489 43.8226 56.5847H42.9047C42.9047 56.5812 42.9047 56.5777 42.9047 56.5777C42.9012 56.3724 42.717 56.2366 42.6092 56.0765C42.4771 55.8781 42.3762 55.6658 42.3067 55.4395C42.258 55.2829 42.0285 55.3455 42.0598 55.5091C42.112 55.7667 42.1989 56.0138 42.3241 56.2436C42.3867 56.3619 42.4597 56.4977 42.5605 56.5882H41.5731C41.5279 56.5325 41.4792 56.4768 41.4444 56.4211C41.3158 56.2262 41.2045 56.0173 41.1176 55.798C41.055 55.6449 40.8151 55.7041 40.8673 55.8677C40.9403 56.1043 41.0342 56.3341 41.1524 56.5533C41.1593 56.5638 41.1663 56.5777 41.1732 56.5916H40.3631C40.3457 56.5568 40.3249 56.5185 40.3075 56.4837C40.1893 56.247 40.0711 56.0069 39.9529 55.7702C39.8937 55.6518 39.6886 55.7354 39.7408 55.8607C39.8381 56.1043 39.9355 56.3515 40.0328 56.5951H39.1358C39.1288 56.5812 39.1184 56.5673 39.1114 56.5533C39.0037 56.3723 38.8959 56.1879 38.7846 56.0069C38.7012 55.8676 38.4995 55.9895 38.569 56.1322C38.6455 56.2853 38.7186 56.4385 38.795 56.5951H37.679C37.5816 56.4559 37.4982 56.3027 37.4356 56.1461C37.3765 55.986 37.14 56.0486 37.1783 56.2157C37.2061 56.3445 37.2478 56.4733 37.2965 56.5951H36.7645C36.6707 56.3967 36.5733 56.1983 36.4794 55.9999C36.4099 55.8572 36.163 55.9581 36.2222 56.1078C36.2847 56.2714 36.3508 56.4315 36.4134 56.5951H35.7145C35.6554 56.4454 35.5894 56.2993 35.5337 56.16C35.4851 56.0382 35.3043 56.0835 35.3355 56.2157C35.3634 56.3375 35.3912 56.4663 35.419 56.5986H34.9948C34.9288 56.428 34.8488 56.2714 34.7375 56.1217C34.6506 56.0069 34.4768 56.1009 34.5393 56.2366C34.5915 56.3515 34.6367 56.4733 34.6715 56.5986H34.289C34.2821 56.5533 34.2751 56.5081 34.2681 56.4628C34.2369 56.2192 34.2056 55.9721 34.1743 55.7284C34.1499 55.5509 33.8753 55.5439 33.8926 55.7284C33.917 55.9721 33.9378 56.2192 33.9622 56.4628C33.9657 56.5081 33.9691 56.5533 33.9726 56.5986H15.5799C15.5764 56.5916 15.5799 56.5812 15.5764 56.5742C15.5243 56.4837 15.4478 56.4072 15.3817 56.3271C15.2809 56.2088 15.0966 56.3967 15.2148 56.4942C15.2566 56.529 15.2948 56.5638 15.333 56.5986H13.9527C13.8762 56.4489 13.8032 56.3027 13.7267 56.1531C13.6537 56.0104 13.4555 56.1357 13.5181 56.2749C13.5668 56.3828 13.612 56.4907 13.6607 56.5986H12.8471C12.7671 56.1078 12.6037 55.6066 12.4959 55.1437C12.4681 55.0218 12.2943 55.0775 12.3151 55.1924C12.3847 55.6379 12.4159 56.1357 12.5133 56.5986H11.2651C11.1956 56.4524 11.126 56.3027 11.0843 56.1426C10.9835 55.7632 10.973 55.3803 11.0426 54.994C11.0461 54.9696 11.0391 54.9487 11.0287 54.9313C11.2686 54.9522 11.5085 54.9766 11.7484 54.9975C11.877 55.0079 12.0265 54.8931 12.0509 54.7643C12.0613 54.7051 12.0613 54.6564 12.0509 54.5972C12.0265 54.4719 11.877 54.3535 11.7484 54.364C11.4285 54.3953 11.1052 54.4232 10.7853 54.4545C10.4967 54.4823 10.4967 54.8791 10.7853 54.907C10.8166 54.9105 10.8479 54.9139 10.8792 54.9174C10.8722 54.9279 10.8618 54.9313 10.8618 54.9418C10.7436 55.4326 10.7088 56.073 10.8931 56.5986H9.82567C9.74222 56.3898 9.64835 56.1844 9.60315 55.9581C9.52318 55.5718 9.55795 55.1854 9.66921 54.8095C9.71441 54.6598 9.49536 54.6076 9.43973 54.7469C9.2346 55.2794 9.15463 56.0312 9.40497 56.5986H8.7374C8.76522 56.529 8.76522 56.4454 8.72002 56.3515C8.66091 56.2296 8.47664 56.2923 8.47664 56.4176C8.47664 56.2679 8.40015 56.0556 8.39319 55.8885C8.38972 55.7389 8.38624 55.5892 8.37929 55.443C8.36886 55.2759 8.35495 55.1123 8.34452 54.9487C8.56008 54.9592 8.77217 54.9348 8.96688 54.8443C9.08162 54.7921 9.07814 54.5972 8.96688 54.545C8.6783 54.4058 8.39319 54.4058 8.0768 54.3709C7.7152 54.3292 7.36404 54.263 7.01287 54.1621C6.98853 54.1551 6.96419 54.1551 6.93986 54.1586C6.93986 54.1517 6.93986 54.1447 6.93986 54.1377C6.93638 53.9672 6.67909 53.9672 6.67214 54.1377C6.65128 54.6564 6.63041 55.1785 6.60955 55.6971C6.59912 55.979 6.53654 56.3306 6.66171 56.5986H5.97676C6.18885 55.6832 6.09497 54.6529 6.11931 53.7201C6.12279 53.5321 5.84116 53.5356 5.82725 53.7201C5.75772 54.6529 5.56997 55.6658 5.69166 56.5986H4.56862C3.93235 56.5986 3.33781 56.428 2.81975 56.1357C2.85104 55.9199 2.87538 55.7006 2.89277 55.4813C2.9171 55.3177 2.94144 55.1541 2.96578 54.9905C2.97273 54.9487 2.95535 54.9139 2.93101 54.8896C2.97273 54.0438 2.95883 53.1875 2.95535 52.3626C2.95535 52.2756 2.80932 52.2477 2.79541 52.3417C2.62852 53.4834 2.42339 54.6842 2.38862 55.8537C2.32951 55.8085 2.2704 55.7632 2.21477 55.7145C2.38166 54.8652 2.39557 53.9463 2.3469 53.0483C2.43382 52.3939 2.51379 51.7395 2.57985 51.0817C2.59028 50.9877 2.44425 50.9529 2.40253 51.0329C2.33299 51.1687 2.2704 51.301 2.20434 51.4332C2.20087 51.3949 2.19739 51.3532 2.19044 51.3114C2.17653 51.1965 2.00268 51.1896 2.00616 51.3114C2.00964 51.482 2.00964 51.6525 2.00964 51.8231C1.8949 52.0667 1.78016 52.3104 1.67586 52.554C1.78712 51.7117 1.8949 50.8694 2.02702 50.0305C2.04093 49.947 1.91576 49.9122 1.90185 49.9957C1.75583 50.845 1.57851 51.6838 1.40466 52.5262C1.35598 52.2408 1.31079 51.9553 1.26906 51.6699C1.27949 51.5899 1.28645 51.5028 1.2934 51.4193C1.59241 50.0688 1.77669 48.6835 1.83579 47.3121C1.83927 47.2216 1.68629 47.1972 1.67238 47.2912C1.51592 48.3632 1.32469 49.4144 1.0987 50.4621C1.0535 50.1001 1.0083 49.7381 0.973528 49.3727V49.129C1.23082 47.9247 1.34903 46.6612 1.54721 45.4708C1.5646 45.3664 1.40466 45.3176 1.3838 45.4255C1.26211 46.0103 1.1126 46.609 0.973528 47.2077V44.538C1.00482 44.2908 1.03611 44.0437 1.07088 43.8035C1.08131 43.7409 1.01177 43.7061 0.973528 43.727V40.1175C1.02568 39.1986 1.08131 38.2762 1.13346 37.3573C1.28992 34.51 1.42205 31.6593 1.58546 28.8121C1.74887 26.0102 2.3921 21.7254 6.17147 21.99C6.23057 21.9934 6.25491 21.9517 6.25491 21.9099H36.6359C36.6359 21.99 36.6429 22.07 36.6602 22.1501C27.5299 22.2058 18.4031 22.2684 9.27632 22.62C9.11638 22.6269 9.11638 22.8636 9.27632 22.8671C17.221 23.0794 25.1622 23.0794 33.1103 23.0376C37.0323 23.0168 40.9507 22.9959 44.8726 22.975C46.7328 22.9646 48.732 22.7662 50.5678 23.1421C51.6804 23.3683 52.9564 24.1097 53.5857 25.1087C53.5996 25.2409 53.61 25.3732 53.61 25.5124V27.6078C53.5961 27.6322 53.5857 27.6531 53.5718 27.6774C53.537 27.7296 53.5683 27.7749 53.61 27.7923V33.0099C52.3862 33.0899 50.9815 33.4728 49.8307 33.8069C49.8202 33.7443 49.8098 33.6782 49.7994 33.612C49.7577 33.3614 49.337 33.3614 49.2952 33.612C49.2744 33.7373 49.2535 33.8592 49.25 33.9775C48.7355 34.1272 48.3008 34.2525 47.9984 34.3047C45.6932 34.7154 43.315 34.7572 41.0654 35.4464C39.6156 35.8919 37.6859 36.6228 37.2235 38.2344C36.7854 39.7659 37.1887 42.3764 38.0892 43.6747C39.1706 45.2376 41.3436 44.9104 42.9847 44.8477C45.4324 44.7538 47.8732 44.5484 50.3035 44.2282C50.3035 44.2317 50.307 44.2351 50.307 44.2386C50.3661 44.3987 50.4044 44.524 50.3904 44.6981C50.3696 44.9243 50.6895 44.9313 50.759 44.7468C50.8285 44.5623 50.8946 44.357 50.8876 44.162V44.1586C51.7569 44.0437 52.7234 43.9671 53.61 43.72V51.924H53.6135Z" fill="url(#paint3_linear_329_534)"/>
<path id="Vector_5" d="M43.0473 37.3642C42.2128 37.2319 41.2393 37.2597 40.763 38.0812C40.3875 38.7286 40.3457 39.8076 40.5613 40.5177C40.6934 40.9528 41.062 41.3252 41.4722 41.36C41.5592 41.4087 41.653 41.454 41.7504 41.4888C43.4436 42.1084 45.0639 40.4933 44.6953 38.7912C44.5076 37.9245 43.8852 37.4964 43.0473 37.3642ZM42.2615 40.911C42.0772 40.8831 41.9034 40.8205 41.7504 40.7335C41.8199 40.3158 41.8269 39.8807 41.8617 39.4561C41.8686 39.3899 41.7539 39.3725 41.7434 39.4387C41.6913 39.8285 41.6113 40.2253 41.5835 40.6186C41.4653 40.5212 41.3645 40.4028 41.288 40.2636V40.2601C41.3297 40.0721 41.3297 39.8703 41.3471 39.6823C41.3714 39.4108 41.3958 39.1428 41.4201 38.8713C41.427 38.7982 41.354 38.7773 41.3019 38.8017C41.3054 38.7808 41.3088 38.7634 41.3158 38.7425C41.3436 38.7147 41.3749 38.6868 41.4097 38.6729C41.427 38.6659 41.4444 38.6485 41.4444 38.6276C41.4444 38.6068 41.441 38.5894 41.441 38.5685C41.441 38.5441 41.427 38.5302 41.4166 38.5093C41.4236 38.4954 41.427 38.4815 41.434 38.4675C41.7539 37.9698 42.4388 38.0499 42.9464 38.1125C43.5688 38.1891 43.9443 38.478 44.0104 39.1219C44.1182 40.1383 43.3046 41.0711 42.2615 40.911Z" fill="url(#paint4_linear_329_534)"/>
<path id="Vector_6" d="M45.3768 42.0074C45.3872 41.8751 45.1925 41.8821 45.1751 42.0074C45.1195 42.4564 45.0082 43.1595 45.2412 43.5737C45.2794 43.6433 45.4046 43.6363 45.4185 43.5493C45.4602 43.3092 45.3872 43.069 45.3698 42.8253C45.3525 42.5538 45.3559 42.2823 45.3768 42.0074Z" fill="url(#paint5_linear_329_534)"/>
<path id="Vector_7" d="M3.27175 48.9618C3.24393 48.6381 3.22307 48.3109 3.18482 47.9837C3.15353 47.7192 3.0075 47.3746 2.68068 47.4199C1.99573 47.5138 2.5868 48.6973 2.70154 49.0384C2.79889 49.3343 3.30304 49.3099 3.27175 48.9618Z" fill="url(#paint6_linear_329_534)"/>
<path id="Vector_8" d="M2.77455 45.8884C3.05966 45.5403 3.08747 45.0356 2.89277 44.6353C2.80237 44.4508 2.54856 44.3847 2.36776 44.4647C2.17305 44.5518 2.07918 44.7502 2.12438 44.959C2.15567 45.1017 2.21825 45.2375 2.25302 45.3802C2.28431 45.5159 2.32604 45.6517 2.37471 45.7805C2.43382 45.9336 2.65286 46.038 2.77455 45.8884Z" fill="url(#paint7_linear_329_534)"/>
<path id="Vector_9" d="M2.73282 42.2406C2.71891 42.077 2.72587 41.9169 2.74673 41.7533C2.77454 41.5236 2.75716 41.3669 2.62156 41.172C2.51378 41.0189 2.33646 40.998 2.19043 41.1163C1.77668 41.4574 2.02006 42.0039 2.29126 42.3589C2.41642 42.5225 2.75716 42.5017 2.73282 42.2406Z" fill="url(#paint8_linear_329_534)"/>
<path id="Vector_10" d="M2.51726 39.9224C2.75717 39.6127 2.78151 39.0975 2.4964 38.8051C2.38166 38.6868 2.19391 38.6555 2.04788 38.7181C1.88447 38.7877 1.81493 38.9235 1.79407 39.094C1.77669 39.2367 1.83232 39.362 1.86709 39.4943C1.89838 39.6196 1.92272 39.7345 1.9853 39.8493C2.08265 40.0269 2.38166 40.093 2.51726 39.9224Z" fill="url(#paint9_linear_329_534)"/>
<path id="Vector_11" d="M2.38165 37.6217C2.62504 37.3258 2.67371 36.9778 2.71891 36.6088C2.77107 36.1981 2.89971 35.8361 2.62851 35.488C2.50682 35.3314 2.25649 35.3732 2.12784 35.488C1.83926 35.7526 1.9088 36.1807 1.89837 36.5392C1.88794 36.8942 1.87751 37.2597 2.06178 37.5764C2.12784 37.6844 2.29821 37.7226 2.38165 37.6217Z" fill="url(#paint10_linear_329_534)"/>
<path id="Vector_12" d="M2.67023 33.4692C2.7954 33.1142 2.8406 32.7661 2.90666 32.3937C2.96925 32.0421 3.11528 31.6941 3.11875 31.3355C3.12223 30.9596 2.6146 30.8378 2.42685 31.1476C2.21476 31.4957 2.19042 31.9656 2.15913 32.3658C2.12784 32.78 2.17304 33.1281 2.33993 33.511C2.40599 33.6676 2.62503 33.6015 2.67023 33.4692Z" fill="url(#paint11_linear_329_534)"/>
<path id="Vector_13" d="M3.19873 29.1462C3.38995 28.9617 3.48383 28.7285 3.59857 28.4953C3.72373 28.2412 3.87324 28.008 4.01927 27.7643C4.29742 27.2944 3.60204 26.9116 3.29955 27.3432C2.99707 27.7748 2.65981 28.5371 2.87538 29.0592C2.93101 29.1914 3.08746 29.2541 3.19873 29.1462Z" fill="url(#paint12_linear_329_534)"/>
<path id="Vector_14" d="M7.20409 25.7977C6.2549 25.4183 5.0658 25.937 4.33914 26.567C4.19311 26.6957 4.34957 26.915 4.51993 26.8767C4.96498 26.7723 5.41349 26.654 5.86201 26.5844C6.32444 26.5148 6.76252 26.5008 7.20409 26.3303C7.46833 26.2328 7.46485 25.9021 7.20409 25.7977Z" fill="url(#paint13_linear_329_534)"/>
<path id="Vector_15" d="M9.05727 25.4775C8.89038 25.5262 8.89038 25.7664 9.05727 25.8116C9.77003 26.0135 10.7366 26.2363 11.425 25.8465C11.578 25.7594 11.578 25.5297 11.425 25.4427C10.7366 25.0529 9.77003 25.2756 9.05727 25.4775Z" fill="url(#paint14_linear_329_534)"/>
<path id="Vector_16" d="M14.735 25.1712C14.0153 24.9902 13.3651 25.1364 12.6628 25.2861C12.5342 25.3139 12.5342 25.5158 12.6628 25.5436C13.3651 25.6933 14.0153 25.8395 14.735 25.6585C14.9749 25.5993 14.9749 25.2304 14.735 25.1712Z" fill="url(#paint15_linear_329_534)"/>
<path id="Vector_17" d="M18.0172 25.1155C17.6 24.8023 17.0611 24.858 16.5813 24.9867C16.3483 25.0494 16.4039 25.3905 16.6369 25.3975C17.0645 25.4114 17.4852 25.5332 17.9129 25.4949C18.1215 25.474 18.1806 25.2374 18.0172 25.1155Z" fill="url(#paint16_linear_329_534)"/>
<path id="Vector_18" d="M22.0295 24.9589C21.4106 24.7396 20.7466 24.8614 20.1138 24.938C19.7974 24.9763 19.7974 25.394 20.1138 25.4323C20.7466 25.5088 21.4141 25.6272 22.0295 25.4114C22.252 25.3313 22.252 25.0355 22.0295 24.9589Z" fill="url(#paint17_linear_329_534)"/>
<path id="Vector_19" d="M24.8701 24.8615C24.5363 24.6979 24.2234 24.771 23.8757 24.8441C23.6532 24.8893 23.6532 25.2478 23.8757 25.2965C24.2234 25.3696 24.5363 25.4427 24.8701 25.2791C25.0266 25.1956 25.0266 24.938 24.8701 24.8615Z" fill="url(#paint18_linear_329_534)"/>
<path id="Vector_20" d="M28.9207 24.9519C28.5104 24.7153 27.9958 24.7431 27.596 24.9867C27.516 25.0355 27.5334 25.1538 27.6203 25.1817C28.0028 25.293 28.4235 25.3696 28.8199 25.3348C29.0111 25.3139 29.1084 25.0598 28.9207 24.9519Z" fill="url(#paint19_linear_329_534)"/>
<path id="Vector_21" d="M31.6431 24.9658C31.4275 24.9972 31.4275 25.3696 31.6431 25.4009C32.0638 25.4601 32.5923 25.6202 32.9747 25.3766C33.1208 25.2861 33.1208 25.0772 32.9747 24.9867C32.5923 24.7466 32.0638 24.9067 31.6431 24.9658Z" fill="url(#paint20_linear_329_534)"/>
<path id="Vector_22" d="M35.8779 24.9798C35.7145 24.8928 35.572 24.8614 35.3877 24.8858C35.2208 24.9067 35.0574 24.9485 34.894 24.9833C34.6958 25.0285 34.6958 25.3383 34.894 25.3835C35.0574 25.4218 35.2208 25.4601 35.3877 25.481C35.572 25.5054 35.7145 25.474 35.8779 25.387C36.0344 25.307 36.0344 25.0598 35.8779 24.9798Z" fill="url(#paint21_linear_329_534)"/>
<path id="Vector_23" d="M37.4912 25.3522C37.6998 25.3383 37.905 25.3557 38.1101 25.3627C38.3257 25.3696 38.5204 25.4149 38.729 25.3453C38.9654 25.2617 38.9898 24.9798 38.795 24.8371C38.3883 24.5447 37.7798 24.7744 37.3904 24.9868C37.227 25.0773 37.293 25.3627 37.4912 25.3522Z" fill="url(#paint22_linear_329_534)"/>
<path id="Vector_24" d="M41.0272 25.3035C41.2914 25.3661 41.5557 25.3905 41.8269 25.4114C42.0876 25.4322 42.3832 25.4914 42.5709 25.2721C42.6787 25.1468 42.6787 24.9902 42.5709 24.8649C42.3832 24.6456 42.0876 24.7013 41.8269 24.7257C41.5557 24.7465 41.2914 24.7744 41.0272 24.8336C40.7942 24.8858 40.7942 25.2478 41.0272 25.3035Z" fill="url(#paint23_linear_329_534)"/>
<path id="Vector_25" d="M44.5597 25.4949C44.8031 25.4984 45.05 25.5089 45.2899 25.5506C45.5263 25.5924 45.7453 25.6933 45.9887 25.7038C46.2703 25.7177 46.472 25.3 46.2321 25.1121C45.7453 24.7257 44.97 24.7883 44.4415 25.0633C44.2329 25.1712 44.3372 25.4914 44.5597 25.4949Z" fill="url(#paint24_linear_329_534)"/>
<path id="Vector_26" d="M47.2995 25.5993C47.7028 25.7455 48.0574 26.01 48.4573 26.1736C48.8502 26.3338 49.1248 25.6759 48.7459 25.4845C48.2939 25.2547 47.8384 25.2582 47.3482 25.2478C47.1361 25.2443 47.1152 25.5332 47.2995 25.5993Z" fill="url(#paint25_linear_329_534)"/>
<path id="Vector_27" d="M49.2535 27.8479C49.2883 27.9767 49.2952 28.1055 49.33 28.2343C49.4343 28.6032 49.9593 28.5162 49.9836 28.1473C50.0045 27.7713 49.7472 27.378 49.4552 27.1657C49.2326 27.0056 49.0171 27.3049 49.1144 27.5068C49.1666 27.6182 49.2222 27.7261 49.2535 27.8479Z" fill="url(#paint26_linear_329_534)"/>
<path id="Vector_28" d="M49.3752 30.4062C49.3821 30.6533 49.3648 30.897 49.3196 31.1406C49.2744 31.3947 49.1944 31.6035 49.3335 31.8437C49.41 31.976 49.6081 32.0421 49.7437 31.9516C50.2166 31.6349 50.0393 30.8065 49.9245 30.3331C49.8515 30.0268 49.3682 30.0894 49.3752 30.4062Z" fill="url(#paint27_linear_329_534)"/>
<path id="Vector_29" d="M3.57424 51.9796C3.7307 51.9135 3.7759 51.5933 3.7307 51.4505C3.69245 51.3322 3.62639 51.2243 3.58814 51.106C3.52208 50.8867 3.51165 50.6639 3.4595 50.4411C3.42821 50.3089 3.25436 50.3019 3.18483 50.4063C2.93449 50.7788 2.96231 51.4854 3.22655 51.8404C3.30304 51.9378 3.44559 52.0353 3.57424 51.9796Z" fill="url(#paint28_linear_329_534)"/>
<path id="Vector_30" d="M15.4999 54.4613C15.1418 54.4787 14.7872 54.4787 14.4291 54.5066C14.2761 54.517 14.1752 54.7502 14.3421 54.8268C14.6898 54.9869 15.0479 55.0774 15.4269 55.1157C15.792 55.154 16.1953 55.2271 16.4804 54.9556C16.6125 54.8268 16.5673 54.6249 16.4248 54.5275C16.1432 54.336 15.8198 54.4439 15.4999 54.4613Z" fill="url(#paint29_linear_329_534)"/>
<path id="Vector_31" d="M19.7 54.3152C19.2584 54.3465 18.8516 54.4196 18.4379 54.5797C18.2432 54.6528 18.2571 54.9661 18.49 54.9626C18.8934 54.9591 19.2967 54.9452 19.7 54.9556C20.0234 54.9626 20.371 55.0774 20.6075 54.8094C20.6666 54.7398 20.6909 54.6389 20.6388 54.5553C20.4336 54.2247 20.0477 54.2908 19.7 54.3152Z" fill="url(#paint30_linear_329_534)"/>
<path id="Vector_32" d="M23.4829 54.2212C23.1421 54.2421 22.8292 54.2804 22.4989 54.3674C22.332 54.4126 22.332 54.6598 22.4989 54.7015C22.8292 54.7886 23.1421 54.8268 23.4829 54.8477C23.7958 54.8686 24.1296 54.9173 24.4042 54.7364C24.5572 54.6354 24.5572 54.4266 24.4042 54.3291C24.1296 54.1516 23.7993 54.2003 23.4829 54.2212Z" fill="url(#paint31_linear_329_534)"/>
<path id="Vector_33" d="M27.5856 54.3465C27.0745 54.1968 26.5564 54.2108 26.0279 54.2142C25.8054 54.2142 25.795 54.5031 25.9793 54.5762C26.5008 54.792 27.0327 54.9034 27.5856 54.7363C27.7768 54.6807 27.7803 54.4022 27.5856 54.3465Z" fill="url(#paint32_linear_329_534)"/>
<path id="Vector_34" d="M30.7182 54.4439C30.2767 54.3152 29.8421 54.3569 29.3901 54.3569C29.2301 54.3569 29.1745 54.5762 29.3101 54.6563C29.7412 54.9138 30.2315 55.0635 30.7182 54.8651C30.906 54.7851 30.9408 54.5101 30.7182 54.4439Z" fill="url(#paint33_linear_329_534)"/>
<path id="Vector_35" d="M33.3259 54.4474C33.0651 54.4648 33.0651 54.8373 33.3259 54.8547C33.7362 54.8825 34.435 55.0426 34.7932 54.7816C34.887 54.712 34.887 54.5936 34.7932 54.524C34.435 54.2595 33.7362 54.4196 33.3259 54.4474Z" fill="url(#paint34_linear_329_534)"/>
<path id="Vector_36" d="M36.5698 54.4648C36.3299 54.4892 36.3299 54.8164 36.5698 54.8408C37.0427 54.886 37.7068 55.0148 38.1448 54.7712C38.2318 54.7224 38.2318 54.5867 38.1448 54.5379C37.7102 54.2943 37.0427 54.4196 36.5698 54.4648Z" fill="url(#paint35_linear_329_534)"/>
<path id="Vector_37" d="M41.1489 54.4474C40.4361 54.249 39.6712 54.3395 38.955 54.4753C38.7777 54.5101 38.7777 54.8025 38.955 54.8373C39.6712 54.9695 40.4327 55.06 41.1489 54.8651C41.3506 54.8025 41.354 54.5031 41.1489 54.4474Z" fill="url(#paint36_linear_329_534)"/>
<path id="Vector_38" d="M44.0208 54.2977C43.7079 54.1724 43.388 54.2316 43.0612 54.2594C42.856 54.2768 42.856 54.5623 43.0612 54.5797C43.388 54.6075 43.7079 54.6667 44.0208 54.5414C44.1425 54.4961 44.1425 54.3465 44.0208 54.2977Z" fill="url(#paint37_linear_329_534)"/>
<path id="Vector_39" d="M49.0379 52.7349C48.7737 52.8046 48.5964 53.0726 48.3321 53.1665C48.0679 53.2605 48.1687 53.6504 48.4503 53.5912C48.7806 53.5216 49.2639 53.3093 49.2709 52.9125C49.2744 52.7906 49.1527 52.7036 49.0379 52.7349Z" fill="url(#paint38_linear_329_534)"/>
<path id="Vector_40" d="M49.9663 50.6395C49.7159 50.9354 49.7785 51.3948 49.7646 51.7568C49.7577 51.91 49.9941 51.9831 50.0636 51.8369C50.2201 51.5132 50.4948 51.1303 50.4148 50.7544C50.3765 50.5699 50.0949 50.4864 49.9663 50.6395Z" fill="url(#paint39_linear_329_534)"/>
<path id="Vector_41" d="M50.0636 47.8062C49.8654 48.0951 49.935 48.5163 49.9245 48.8539C49.9176 49.1045 50.3105 49.1637 50.3661 48.9131C50.4391 48.5859 50.613 48.1891 50.4947 47.8619C50.4252 47.667 50.1818 47.6322 50.0636 47.8062Z" fill="url(#paint40_linear_329_534)"/>
<path id="Vector_42" d="M50.0671 45.3349C50.0254 45.6517 50.1575 45.9858 50.1957 46.2991C50.2236 46.5149 50.5052 46.5149 50.533 46.2991C50.5713 45.9858 50.7034 45.6482 50.6617 45.3349C50.6095 44.9555 50.1158 44.952 50.0671 45.3349Z" fill="url(#paint41_linear_329_534)"/>
</g>
</g>
<defs>
<linearGradient id="paint0_linear_329_534" x1="3.77978" y1="51.9139" x2="3.77978" y2="56.2949" gradientUnits="userSpaceOnUse">
<stop offset="0.510417" stop-color="#F48A37"/>
<stop offset="1" stop-color="#ED7638"/>
</linearGradient>
<linearGradient id="paint1_linear_329_534" x1="6.38007" y1="22.5537" x2="6.38007" y2="22.7347" gradientUnits="userSpaceOnUse">
<stop offset="0.510417" stop-color="#F48A37"/>
<stop offset="1" stop-color="#ED7638"/>
</linearGradient>
<linearGradient id="paint2_linear_329_534" x1="4.99246" y1="52.446" x2="4.99246" y2="56.4907" gradientUnits="userSpaceOnUse">
<stop offset="0.510417" stop-color="#F48A37"/>
<stop offset="1" stop-color="#ED7638"/>
</linearGradient>
<linearGradient id="paint3_linear_329_534" x1="28.4998" y1="0.507996" x2="28.4998" y2="57.5071" gradientUnits="userSpaceOnUse">
<stop offset="0.510417" stop-color="#F48A37"/>
<stop offset="1" stop-color="#ED7638"/>
</linearGradient>
<linearGradient id="paint4_linear_329_534" x1="42.5896" y1="37.3045" x2="42.5896" y2="41.624" gradientUnits="userSpaceOnUse">
<stop offset="0.510417" stop-color="#F48A37"/>
<stop offset="1" stop-color="#ED7638"/>
</linearGradient>
<linearGradient id="paint5_linear_329_534" x1="45.2653" y1="41.9108" x2="45.2653" y2="43.6208" gradientUnits="userSpaceOnUse">
<stop offset="0.510417" stop-color="#F48A37"/>
<stop offset="1" stop-color="#ED7638"/>
</linearGradient>
<linearGradient id="paint6_linear_329_534" x1="2.81419" y1="47.4158" x2="2.81419" y2="49.2431" gradientUnits="userSpaceOnUse">
<stop offset="0.510417" stop-color="#F48A37"/>
<stop offset="1" stop-color="#ED7638"/>
</linearGradient>
<linearGradient id="paint7_linear_329_534" x1="2.56548" y1="44.4313" x2="2.56548" y2="45.961" gradientUnits="userSpaceOnUse">
<stop offset="0.510417" stop-color="#F48A37"/>
<stop offset="1" stop-color="#ED7638"/>
</linearGradient>
<linearGradient id="paint8_linear_329_534" x1="2.36341" y1="41.0403" x2="2.36341" y2="42.4633" gradientUnits="userSpaceOnUse">
<stop offset="0.510417" stop-color="#F48A37"/>
<stop offset="1" stop-color="#ED7638"/>
</linearGradient>
<linearGradient id="paint9_linear_329_534" x1="2.24725" y1="38.6865" x2="2.24725" y2="40.0215" gradientUnits="userSpaceOnUse">
<stop offset="0.510417" stop-color="#F48A37"/>
<stop offset="1" stop-color="#ED7638"/>
</linearGradient>
<linearGradient id="paint10_linear_329_534" x1="2.34446" y1="35.3856" x2="2.34446" y2="37.6805" gradientUnits="userSpaceOnUse">
<stop offset="0.510417" stop-color="#F48A37"/>
<stop offset="1" stop-color="#ED7638"/>
</linearGradient>
<linearGradient id="paint11_linear_329_534" x1="2.63433" y1="30.9716" x2="2.63433" y2="33.6021" gradientUnits="userSpaceOnUse">
<stop offset="0.510417" stop-color="#F48A37"/>
<stop offset="1" stop-color="#ED7638"/>
</linearGradient>
<linearGradient id="paint12_linear_329_534" x1="3.44536" y1="27.1549" x2="3.44536" y2="29.2011" gradientUnits="userSpaceOnUse">
<stop offset="0.510417" stop-color="#F48A37"/>
<stop offset="1" stop-color="#ED7638"/>
</linearGradient>
<linearGradient id="paint13_linear_329_534" x1="5.84112" y1="25.6688" x2="5.84112" y2="26.8812" gradientUnits="userSpaceOnUse">
<stop offset="0.510417" stop-color="#F48A37"/>
<stop offset="1" stop-color="#ED7638"/>
</linearGradient>
<linearGradient id="paint14_linear_329_534" x1="10.2359" y1="25.2284" x2="10.2359" y2="26.0608" gradientUnits="userSpaceOnUse">
<stop offset="0.510417" stop-color="#F48A37"/>
<stop offset="1" stop-color="#ED7638"/>
</linearGradient>
<linearGradient id="paint15_linear_329_534" x1="13.7406" y1="25.0873" x2="13.7406" y2="25.7424" gradientUnits="userSpaceOnUse">
<stop offset="0.510417" stop-color="#F48A37"/>
<stop offset="1" stop-color="#ED7638"/>
</linearGradient>
<linearGradient id="paint16_linear_329_534" x1="17.2715" y1="24.8842" x2="17.2715" y2="25.5023" gradientUnits="userSpaceOnUse">
<stop offset="0.510417" stop-color="#F48A37"/>
<stop offset="1" stop-color="#ED7638"/>
</linearGradient>
<linearGradient id="paint17_linear_329_534" x1="21.0364" y1="24.8345" x2="21.0364" y2="25.5343" gradientUnits="userSpaceOnUse">
<stop offset="0.510417" stop-color="#F48A37"/>
<stop offset="1" stop-color="#ED7638"/>
</linearGradient>
<linearGradient id="paint18_linear_329_534" x1="24.3482" y1="24.7628" x2="24.3482" y2="25.3778" gradientUnits="userSpaceOnUse">
<stop offset="0.510417" stop-color="#F48A37"/>
<stop offset="1" stop-color="#ED7638"/>
</linearGradient>
<linearGradient id="paint19_linear_329_534" x1="28.2832" y1="24.7885" x2="28.2832" y2="25.3433" gradientUnits="userSpaceOnUse">
<stop offset="0.510417" stop-color="#F48A37"/>
<stop offset="1" stop-color="#ED7638"/>
</linearGradient>
<linearGradient id="paint20_linear_329_534" x1="32.2828" y1="24.8586" x2="32.2828" y2="25.5074" gradientUnits="userSpaceOnUse">
<stop offset="0.510417" stop-color="#F48A37"/>
<stop offset="1" stop-color="#ED7638"/>
</linearGradient>
<linearGradient id="paint21_linear_329_534" x1="35.3703" y1="24.8778" x2="35.3703" y2="25.489" gradientUnits="userSpaceOnUse">
<stop offset="0.510417" stop-color="#F48A37"/>
<stop offset="1" stop-color="#ED7638"/>
</linearGradient>
<linearGradient id="paint22_linear_329_534" x1="38.1118" y1="24.6987" x2="38.1118" y2="25.3836" gradientUnits="userSpaceOnUse">
<stop offset="0.510417" stop-color="#F48A37"/>
<stop offset="1" stop-color="#ED7638"/>
</linearGradient>
<linearGradient id="paint23_linear_329_534" x1="41.7521" y1="24.701" x2="41.7521" y2="25.4345" gradientUnits="userSpaceOnUse">
<stop offset="0.510417" stop-color="#F48A37"/>
<stop offset="1" stop-color="#ED7638"/>
</linearGradient>
<linearGradient id="paint24_linear_329_534" x1="45.3336" y1="24.8397" x2="45.3336" y2="25.7041" gradientUnits="userSpaceOnUse">
<stop offset="0.510417" stop-color="#F48A37"/>
<stop offset="1" stop-color="#ED7638"/>
</linearGradient>
<linearGradient id="paint25_linear_329_534" x1="48.0504" y1="25.2477" x2="48.0504" y2="26.1985" gradientUnits="userSpaceOnUse">
<stop offset="0.510417" stop-color="#F48A37"/>
<stop offset="1" stop-color="#ED7638"/>
</linearGradient>
<linearGradient id="paint26_linear_329_534" x1="49.5376" y1="27.1203" x2="49.5376" y2="28.4713" gradientUnits="userSpaceOnUse">
<stop offset="0.510417" stop-color="#F48A37"/>
<stop offset="1" stop-color="#ED7638"/>
</linearGradient>
<linearGradient id="paint27_linear_329_534" x1="49.6549" y1="30.1332" x2="49.6549" y2="31.9933" gradientUnits="userSpaceOnUse">
<stop offset="0.510417" stop-color="#F48A37"/>
<stop offset="1" stop-color="#ED7638"/>
</linearGradient>
<linearGradient id="paint28_linear_329_534" x1="3.37959" y1="50.3343" x2="3.37959" y2="51.9959" gradientUnits="userSpaceOnUse">
<stop offset="0.510417" stop-color="#F48A37"/>
<stop offset="1" stop-color="#ED7638"/>
</linearGradient>
<linearGradient id="paint29_linear_329_534" x1="15.4075" y1="54.4153" x2="15.4075" y2="55.1543" gradientUnits="userSpaceOnUse">
<stop offset="0.510417" stop-color="#F48A37"/>
<stop offset="1" stop-color="#ED7638"/>
</linearGradient>
<linearGradient id="paint30_linear_329_534" x1="19.485" y1="54.293" x2="19.485" y2="54.986" gradientUnits="userSpaceOnUse">
<stop offset="0.510417" stop-color="#F48A37"/>
<stop offset="1" stop-color="#ED7638"/>
</linearGradient>
<linearGradient id="paint31_linear_329_534" x1="23.4464" y1="54.199" x2="23.4464" y2="54.8697" gradientUnits="userSpaceOnUse">
<stop offset="0.510417" stop-color="#F48A37"/>
<stop offset="1" stop-color="#ED7638"/>
</linearGradient>
<linearGradient id="paint32_linear_329_534" x1="26.7903" y1="54.2123" x2="26.7903" y2="54.8171" gradientUnits="userSpaceOnUse">
<stop offset="0.510417" stop-color="#F48A37"/>
<stop offset="1" stop-color="#ED7638"/>
</linearGradient>
<linearGradient id="paint33_linear_329_534" x1="30.053" y1="54.3505" x2="30.053" y2="54.9565" gradientUnits="userSpaceOnUse">
<stop offset="0.510417" stop-color="#F48A37"/>
<stop offset="1" stop-color="#ED7638"/>
</linearGradient>
<linearGradient id="paint34_linear_329_534" x1="33.997" y1="54.374" x2="33.997" y2="54.9287" gradientUnits="userSpaceOnUse">
<stop offset="0.510417" stop-color="#F48A37"/>
<stop offset="1" stop-color="#ED7638"/>
</linearGradient>
<linearGradient id="paint35_linear_329_534" x1="37.3" y1="54.3922" x2="37.3" y2="54.9154" gradientUnits="userSpaceOnUse">
<stop offset="0.510417" stop-color="#F48A37"/>
<stop offset="1" stop-color="#ED7638"/>
</linearGradient>
<linearGradient id="paint36_linear_329_534" x1="40.0617" y1="54.3323" x2="40.0617" y2="54.9777" gradientUnits="userSpaceOnUse">
<stop offset="0.510417" stop-color="#F48A37"/>
<stop offset="1" stop-color="#ED7638"/>
</linearGradient>
<linearGradient id="paint37_linear_329_534" x1="43.5097" y1="54.2209" x2="43.5097" y2="54.6182" gradientUnits="userSpaceOnUse">
<stop offset="0.510417" stop-color="#F48A37"/>
<stop offset="1" stop-color="#ED7638"/>
</linearGradient>
<linearGradient id="paint38_linear_329_534" x1="48.7247" y1="52.7285" x2="48.7247" y2="53.5973" gradientUnits="userSpaceOnUse">
<stop offset="0.510417" stop-color="#F48A37"/>
<stop offset="1" stop-color="#ED7638"/>
</linearGradient>
<linearGradient id="paint39_linear_329_534" x1="50.0968" y1="50.5598" x2="50.0968" y2="51.9162" gradientUnits="userSpaceOnUse">
<stop offset="0.510417" stop-color="#F48A37"/>
<stop offset="1" stop-color="#ED7638"/>
</linearGradient>
<linearGradient id="paint40_linear_329_534" x1="50.2278" y1="47.6937" x2="50.2278" y2="49.0741" gradientUnits="userSpaceOnUse">
<stop offset="0.510417" stop-color="#F48A37"/>
<stop offset="1" stop-color="#ED7638"/>
</linearGradient>
<linearGradient id="paint41_linear_329_534" x1="50.3644" y1="45.0491" x2="50.3644" y2="46.4609" gradientUnits="userSpaceOnUse">
<stop offset="0.510417" stop-color="#F48A37"/>
<stop offset="1" stop-color="#ED7638"/>
</linearGradient>
<clipPath id="clip0_329_534">
<rect width="57" height="57" fill="white" transform="translate(0 0.5)"/>
</clipPath>
</defs>
</svg>
