<svg width="23" height="23" viewBox="0 0 23 23" fill="none" xmlns="http://www.w3.org/2000/svg">
<path id="Vector" d="M11.4969 7.83177C9.38527 7.83177 7.66201 9.48013 7.66201 11.5C7.66201 13.5199 9.38527 15.1682 11.4969 15.1682C13.6085 15.1682 15.3318 13.5199 15.3318 11.5C15.3318 9.48013 13.6085 7.83177 11.4969 7.83177ZM22.9987 11.5C22.9987 9.98097 23.0131 8.47571 22.9239 6.95943C22.8347 5.19824 22.4147 3.63519 21.0683 2.34732C19.7191 1.05669 18.0879 0.657674 16.2467 0.572367C14.6586 0.487059 13.085 0.500819 11.4998 0.500819C9.91174 0.500819 8.33808 0.487059 6.75292 0.572367C4.91171 0.657674 3.27763 1.05945 1.93125 2.34732C0.581988 3.63794 0.164838 5.19824 0.0756548 6.95943C-0.0135288 8.47846 0.000855714 9.98373 0.000855714 11.5C0.000855714 13.0163 -0.0135288 14.5243 0.0756548 16.0406C0.164838 17.8018 0.584864 19.3648 1.93125 20.6527C3.28051 21.9433 4.91171 22.3423 6.75292 22.4276C8.34096 22.5129 9.91462 22.4992 11.4998 22.4992C13.0878 22.4992 14.6615 22.5129 16.2467 22.4276C18.0879 22.3423 19.7219 21.9406 21.0683 20.6527C22.4176 19.3621 22.8347 17.8018 22.9239 16.0406C23.016 14.5243 22.9987 13.019 22.9987 11.5ZM11.4969 17.1441C8.23164 17.1441 5.59641 14.6234 5.59641 11.5C5.59641 8.37664 8.23164 5.85594 11.4969 5.85594C14.7622 5.85594 17.3974 8.37664 17.3974 11.5C17.3974 14.6234 14.7622 17.1441 11.4969 17.1441ZM17.6391 6.94292C16.8767 6.94292 16.261 6.35402 16.261 5.62478C16.261 4.89554 16.8767 4.30664 17.6391 4.30664C18.4014 4.30664 19.0171 4.89554 19.0171 5.62478C19.0173 5.79794 18.9818 5.96945 18.9127 6.12947C18.8435 6.28949 18.742 6.43489 18.614 6.55733C18.486 6.67978 18.334 6.77686 18.1667 6.84303C17.9994 6.90919 17.8201 6.94314 17.6391 6.94292Z" fill="white"/>
</svg>
